<svg width="112" height="112" viewBox="0 0 112 112" fill="none" xmlns="http://www.w3.org/2000/svg">
<path d="M94.5 28.4375H79.625L76.0812 18.5063C75.8364 17.8267 75.3878 17.2393 74.7966 16.8243C74.2054 16.4092 73.5005 16.1869 72.7781 16.1875H39.2219C37.7453 16.1875 36.4219 17.1172 35.9297 18.5063L32.375 28.4375H17.5C12.6656 28.4375 8.75 32.3531 8.75 37.1875V87.0625C8.75 91.8969 12.6656 95.8125 17.5 95.8125H94.5C99.3344 95.8125 103.25 91.8969 103.25 87.0625V37.1875C103.25 32.3531 99.3344 28.4375 94.5 28.4375ZM56 78.3125C46.3312 78.3125 38.5 70.4813 38.5 60.8125C38.5 51.1437 46.3312 43.3125 56 43.3125C65.6688 43.3125 73.5 51.1437 73.5 60.8125C73.5 70.4813 65.6688 78.3125 56 78.3125ZM45.5 60.8125C45.5 63.5973 46.6062 66.268 48.5754 68.2371C50.5445 70.2063 53.2152 71.3125 56 71.3125C58.7848 71.3125 61.4555 70.2063 63.4246 68.2371C65.3938 66.268 66.5 63.5973 66.5 60.8125C66.5 58.0277 65.3938 55.357 63.4246 53.3879C61.4555 51.4187 58.7848 50.3125 56 50.3125C53.2152 50.3125 50.5445 51.4187 48.5754 53.3879C46.6062 55.357 45.5 58.0277 45.5 60.8125Z" fill="#517ACA"/>
</svg>
