<svg width="84" height="71" viewBox="0 0 84 71" fill="none" xmlns="http://www.w3.org/2000/svg">
<path d="M42.2395 0.342987L0.525146 19.3284L11.649 24.2103V33.4318C8.31183 34.5167 6.08707 37.7713 6.08707 41.026C6.08707 44.2806 8.31183 47.5353 11.649 48.6201V49.1626L6.64326 60.5538C4.97468 65.4358 6.08707 70.8602 14.4299 70.8602C22.7728 70.8602 23.8852 65.4358 22.2166 60.5538L17.2109 49.1626C20.5481 47.5353 22.7728 44.8231 22.7728 41.026C22.7728 37.2289 20.5481 34.5167 17.2109 33.4318V26.9225L42.2395 38.3138L83.9539 19.3284L42.2395 0.342987ZM66.712 35.6016L41.6833 46.4504L28.3347 40.4835V41.026C28.3347 44.8231 26.6662 48.0777 23.8852 50.7899L27.2224 58.3841V58.9265C27.7786 61.0963 28.3347 63.266 27.7786 65.4358C31.6719 67.0631 36.1214 68.148 41.6833 68.148C60.0377 68.148 66.712 57.2992 66.712 51.8748V35.6016V35.6016Z" fill="black"/>
</svg>
