<svg width="62" height="47" viewBox="0 0 62 47" fill="none" xmlns="http://www.w3.org/2000/svg">
<g clip-path="url(#clip0_8_32)">
<path d="M31 3.10001L0 13.95L8.26667 16.74V22.01C5.78667 22.63 4.13333 24.49 4.13333 26.35C4.13333 28.21 5.78667 30.07 8.26667 30.69V31L4.54667 37.51C3.30667 40.3 4.13333 43.4 10.3333 43.4C16.5333 43.4 17.36 40.3 16.12 37.51L12.4 31C14.88 30.07 16.5333 28.52 16.5333 26.35C16.5333 24.18 14.88 22.63 12.4 22.01V18.29L31 24.8L62 13.95L31 3.10001ZM49.1867 23.25L30.5867 29.45L20.6667 26.04V26.35C20.6667 28.52 19.4267 30.38 17.36 31.93L19.84 36.27V36.58C20.2533 37.82 20.6667 39.06 20.2533 40.3C23.1467 41.23 26.4533 41.85 30.5867 41.85C44.2267 41.85 49.1867 35.65 49.1867 32.55V23.25Z" fill="black"/>
</g>
<defs>
<clipPath id="clip0_8_32">
<rect width="62" height="46.5" fill="white"/>
</clipPath>
</defs>
</svg>
