<svg width="49" height="46" viewBox="0 0 49 46" fill="none" xmlns="http://www.w3.org/2000/svg">
<path d="M42.1094 37.4853H6.89062C6.04365 37.4853 5.35938 38.1251 5.35938 38.917V40.5277C5.35938 40.7246 5.53164 40.8856 5.74219 40.8856H43.2578C43.4684 40.8856 43.6406 40.7246 43.6406 40.5277V38.917C43.6406 38.1251 42.9563 37.4853 42.1094 37.4853ZM12.3313 33.727C12.4271 33.727 12.5228 33.7181 12.6185 33.7047L20.6671 32.3848C20.7628 32.3669 20.8537 32.3266 20.9207 32.2595L41.205 13.2937C41.2493 13.2523 41.2845 13.2032 41.3085 13.149C41.3326 13.0949 41.3449 13.0369 41.3449 12.9783C41.3449 12.9197 41.3326 12.8617 41.3085 12.8075C41.2845 12.7534 41.2493 12.7043 41.205 12.6629L33.2521 5.2224C33.1611 5.13739 33.0415 5.09265 32.9123 5.09265C32.7831 5.09265 32.6635 5.13739 32.5726 5.2224L12.2883 24.1882C12.2165 24.2553 12.1734 24.3358 12.1543 24.4253L10.7427 31.9508C10.6961 32.1905 10.7128 32.4372 10.7911 32.6695C10.8695 32.9018 11.0073 33.1128 11.1925 33.2841C11.5083 33.5704 11.9055 33.727 12.3313 33.727Z" fill="black"/>
</svg>
