<svg width="53" height="53" viewBox="0 0 53 53" fill="none" xmlns="http://www.w3.org/2000/svg">
<path d="M9.05415 22.0833C9.56942 18.2924 11.2536 15.1367 14.1068 12.6162C16.9585 10.0943 20.3535 8.83333 24.2916 8.83333C26.4632 8.83333 28.497 9.24703 30.3933 10.0744C32.288 10.9033 33.9347 12.0354 35.3333 13.4708V8.83333H39.75V22.0833H26.5V17.6667H33.125C32.0576 16.3417 30.7783 15.2743 29.2869 14.4646C27.797 13.6549 26.1319 13.25 24.2916 13.25C21.6416 13.25 19.3045 14.087 17.2802 15.7609C15.2559 17.4363 13.9861 19.5437 13.4708 22.0833H9.05415ZM43.2833 46.375L33.5666 36.6583C32.2416 37.6521 30.7974 38.4154 29.2339 38.9484C27.6689 39.4828 26.0215 39.75 24.2916 39.75C22.1201 39.75 20.087 39.3363 18.1922 38.5089C16.296 37.6801 14.6486 36.5479 13.25 35.1125V39.75H8.83331V26.5H22.0833V30.9167H15.4583C16.5257 32.2417 17.805 33.309 19.2964 34.1187C20.7863 34.9285 22.4514 35.3333 24.2916 35.3333C26.9416 35.3333 29.2788 34.4964 31.3031 32.8225C33.3274 31.1471 34.5972 29.0396 35.1125 26.5H39.5291C39.3451 27.825 39.0139 29.0676 38.5354 30.2277C38.0569 31.3863 37.4312 32.4993 36.6583 33.5667L46.375 43.2833L43.2833 46.375Z" fill="#A4A1A1"/>
</svg>
