<svg width="253" height="50" viewBox="0 0 253 50" fill="none" xmlns="http://www.w3.org/2000/svg">
<path d="M82.389 37.6156V13.371H91.4808C93.3433 13.371 94.9059 13.6945 96.1687 14.3417C97.4393 14.9888 98.3982 15.8964 99.0454 17.0645C99.7004 18.2246 100.028 19.5781 100.028 21.125C100.028 22.6797 99.6965 24.0293 99.0335 25.1737C98.3785 26.3101 97.4117 27.1901 96.1332 27.8136C94.8546 28.4292 93.2841 28.737 91.4216 28.737H84.9461V25.0908H90.8297C91.9188 25.0908 92.8106 24.9408 93.5051 24.6409C94.1996 24.3331 94.7126 23.8872 95.0441 23.3032C95.3834 22.7113 95.5531 21.9852 95.5531 21.125C95.5531 20.2647 95.3834 19.5308 95.0441 18.9231C94.7047 18.3075 94.1878 17.8419 93.4933 17.5262C92.7987 17.2026 91.903 17.0408 90.806 17.0408H86.781V37.6156H82.389ZM94.9138 26.6298L100.916 37.6156H96.0148L90.1194 26.6298H94.9138ZM107.184 37.6156H102.496L111.032 13.371H116.453L125.001 37.6156H120.313L113.837 18.343H113.648L107.184 37.6156ZM107.338 28.1095H120.123V31.6373H107.338V28.1095ZM148.118 13.371V37.6156H144.211L132.787 21.1013H132.586V37.6156H128.194V13.371H132.124L143.536 29.8971H143.749V13.371H148.118ZM161.119 37.6156H152.903V13.371H161.285C163.692 13.371 165.76 13.8563 167.488 14.8271C169.224 15.7899 170.558 17.175 171.489 18.9823C172.421 20.7896 172.886 22.952 172.886 25.4696C172.886 27.9951 172.417 30.1654 171.478 31.9806C170.546 33.7958 169.201 35.1888 167.441 36.1595C165.689 37.1303 163.581 37.6156 161.119 37.6156ZM157.295 33.8156H160.906C162.595 33.8156 164.004 33.5078 165.132 32.8922C166.261 32.2687 167.109 31.3414 167.677 30.1102C168.246 28.8711 168.53 27.3243 168.53 25.4696C168.53 23.615 168.246 22.076 167.677 20.8527C167.109 19.6215 166.269 18.7021 165.156 18.0944C164.051 17.4788 162.678 17.171 161.036 17.171H157.295V33.8156ZM198.723 25.4933C198.723 28.1056 198.234 30.343 197.255 32.2056C196.285 34.0602 194.959 35.4808 193.278 36.4673C191.604 37.4538 189.706 37.9471 187.583 37.9471C185.46 37.9471 183.558 37.4538 181.877 36.4673C180.204 35.4729 178.878 34.0484 177.9 32.1937C176.929 30.3312 176.444 28.0977 176.444 25.4933C176.444 22.881 176.929 20.6475 177.9 18.7929C178.878 16.9303 180.204 15.5058 181.877 14.5193C183.558 13.5327 185.46 13.0395 187.583 13.0395C189.706 13.0395 191.604 13.5327 193.278 14.5193C194.959 15.5058 196.285 16.9303 197.255 18.7929C198.234 20.6475 198.723 22.881 198.723 25.4933ZM194.308 25.4933C194.308 23.6544 194.019 22.1036 193.443 20.8409C192.875 19.5702 192.086 18.6113 191.076 17.9642C190.066 17.3091 188.901 16.9816 187.583 16.9816C186.265 16.9816 185.101 17.3091 184.091 17.9642C183.081 18.6113 182.288 19.5702 181.712 20.8409C181.143 22.1036 180.859 23.6544 180.859 25.4933C180.859 27.3322 181.143 28.8869 181.712 30.1576C182.288 31.4203 183.081 32.3792 184.091 33.0342C185.101 33.6814 186.265 34.005 187.583 34.005C188.901 34.005 190.066 33.6814 191.076 33.0342C192.086 32.3792 192.875 31.4203 193.443 30.1576C194.019 28.8869 194.308 27.3322 194.308 25.4933ZM202.875 13.371H208.25L215.448 30.9389H215.732L222.929 13.371H228.304V37.6156H224.09V20.9593H223.865L217.164 37.5446H214.015L207.315 20.9237H207.09V37.6156H202.875V13.371ZM248.37 13.371H252.762V29.2105C252.762 30.9468 252.351 32.4739 251.531 33.7919C250.718 35.1099 249.573 36.1398 248.097 36.8817C246.622 37.6156 244.897 37.9826 242.924 37.9826C240.943 37.9826 239.215 37.6156 237.739 36.8817C236.263 36.1398 235.119 35.1099 234.306 33.7919C233.493 32.4739 233.087 30.9468 233.087 29.2105V13.371H237.479V28.8435C237.479 29.8537 237.7 30.7534 238.141 31.5426C238.591 32.3318 239.223 32.9514 240.036 33.4012C240.848 33.8432 241.811 34.0642 242.924 34.0642C244.037 34.0642 245 33.8432 245.813 33.4012C246.633 32.9514 247.265 32.3318 247.707 31.5426C248.149 30.7534 248.37 29.8537 248.37 28.8435V13.371Z" fill="black"/>
<path d="M58.223 42.71C57.0898 41.5943 43.3576 36.2825 40.8658 35.2805C38.3871 34.2961 37.3983 31.568 37.3983 31.568C37.3983 31.568 36.2825 32.1849 36.2825 30.4523C36.2825 28.7174 37.3983 31.568 38.514 24.878C38.514 24.878 41.6096 24.0095 40.9949 16.8273H40.251C40.251 16.8273 42.1106 9.14843 40.251 6.54944C38.3849 3.95045 37.6542 2.21779 33.5567 0.975171C29.4657 -0.265256 30.9533 -0.0180455 27.9824 0.108841C25.0071 0.23354 22.5306 1.84369 22.5306 2.70783C22.5306 2.70783 20.6711 2.83253 19.9316 3.57635C19.1878 4.32017 17.9496 7.78549 17.9496 8.65182C17.9496 9.51815 18.5687 15.3462 19.1878 16.5801L18.4506 16.8207C17.8315 24.0051 20.9271 24.8758 20.9271 24.8758C22.0428 31.5658 23.1585 28.7152 23.1585 30.4501C23.1585 32.1828 22.0428 31.5658 22.0428 31.5658C22.0428 31.5658 21.0517 34.2917 18.5753 35.2784C16.0988 36.2694 2.35127 41.5943 1.23335 42.7078C0.117622 43.8454 0.242321 49.0434 0.242321 49.0434H59.2097C59.2097 49.0434 59.3475 43.841 58.2186 42.7056L58.223 42.71ZM32.1784 20.5704C31.3077 20.0235 30.4654 17.9233 30.4654 16.9826V16.4663C30.2357 16.2344 29.2097 16.2563 28.9997 16.4663V16.9826C28.9997 17.9233 28.1574 20.0235 27.2867 20.5704C26.4116 21.1174 23.7645 21.0889 22.7275 20.0541C21.6927 19.0193 21.5812 16.416 21.3208 16.16C21.0627 15.8975 20.9161 15.7553 20.9161 15.7553L20.9817 14.8496C20.9817 14.8496 22.8194 14.3967 24.6965 14.3967C26.5735 14.3967 28.6409 15.4971 28.6409 15.4971C29.1484 15.3353 30.3582 15.3156 30.822 15.4971C30.822 15.4971 32.8894 14.3989 34.7665 14.3989C36.6435 14.3989 38.4856 14.854 38.4856 14.854L38.5468 15.7597L38.1421 16.1644C37.8839 16.4225 37.7702 19.0259 36.7354 20.0585C35.7072 21.0933 33.0557 21.1239 32.1806 20.5748L32.1784 20.5704Z" fill="black"/>
</svg>
