<svg width="46" height="59" viewBox="0 0 46 59" fill="none" xmlns="http://www.w3.org/2000/svg">
<path d="M15.8531 24.1156C15.7094 24.1875 15.5656 24.2594 15.4219 24.4031C16.7875 24.0438 18.3688 24.6906 19.0156 26.0563L25.5563 39.7844L27.1375 40.7188L19.95 25.625C19.2312 24.0438 17.4344 23.3969 15.8531 24.1156Z" fill="#EBA352"/>
<path d="M39.1404 38.5625C34.6842 39.0656 28.1436 45.4625 32.7436 52.4344C29.3654 45.3906 34.8998 40.6469 38.4217 38.9938C38.7811 38.7063 39.1404 38.5625 39.1404 38.5625Z" fill="#EBA352"/>
<path d="M10.1344 32.7093C9.775 32.6374 9.4875 32.5655 9.12813 32.4218C8.76875 32.278 8.48125 32.2061 8.19375 32.0624C7.54687 31.7749 6.97187 31.4155 6.39687 30.9843C5.24687 30.1936 4.3125 29.1155 3.59375 27.8218C2.875 26.5999 2.44375 25.1624 2.37188 23.7968C2.3 23.078 2.37188 22.4311 2.44375 21.7124C2.51562 21.353 2.5875 21.0655 2.65937 20.7061C2.73125 20.3468 2.875 20.0593 2.94687 19.6999L3.01875 20.7061C3.01875 21.0655 3.09063 21.353 3.1625 21.7124C3.23438 22.3593 3.37812 23.0061 3.52188 23.5811C3.80938 24.803 4.24063 25.953 4.8875 27.0311C5.53438 28.1093 6.25313 29.1155 7.1875 30.0499C7.61875 30.4811 8.12187 30.9124 8.625 31.3436C8.84062 31.5593 9.12813 31.7749 9.41563 31.9905L10.1344 32.7093ZM9.91875 35.2968C9.70312 35.4405 9.41562 35.5124 9.12813 35.5843C8.84062 35.6561 8.625 35.728 8.3375 35.728C7.83438 35.7999 7.25938 35.8718 6.68438 35.7999C5.60625 35.728 4.45625 35.4405 3.52188 34.9374C2.51562 34.4343 1.65313 33.6436 1.07812 32.7093C0.790625 32.278 0.503125 31.7749 0.2875 31.2718C0.215625 31.0561 0.14375 30.7686 0.0718749 30.4811C0.0718749 30.2655 0 30.0499 0 29.7624C0.215625 29.978 0.359375 30.1936 0.503125 30.3374C0.71875 30.553 0.8625 30.7686 1.00625 30.9124C1.36563 31.2718 1.65313 31.6311 2.0125 31.9186C2.73125 32.5655 3.45 33.1405 4.3125 33.5718C5.10313 34.003 6.0375 34.3624 6.9 34.6499C7.33125 34.7936 7.83438 34.8655 8.3375 35.0093C8.55313 35.0811 8.84062 35.0811 9.05625 35.153C9.41563 35.2249 9.63125 35.2249 9.91875 35.2968ZM26.1625 0.365503C26.5219 0.437378 26.8094 0.581128 27.1687 0.724878C27.5281 0.868628 27.8156 1.01238 28.1031 1.15613C28.75 1.5155 29.325 1.87488 29.9 2.30613C31.05 3.16863 31.9844 4.31863 32.6313 5.61238C33.2781 6.90613 33.6375 8.34363 33.6375 9.70925C33.6375 10.428 33.5656 11.0749 33.4219 11.7936C33.35 12.153 33.2781 12.4405 33.1344 12.7999C32.9906 13.1593 32.9188 13.4468 32.775 13.7343L32.7031 12.728C32.7031 12.3686 32.7031 12.0811 32.6313 11.7218L32.4156 9.78113C32.2 8.55925 31.7688 7.33738 31.1938 6.18738C30.6188 5.03738 29.9 4.03113 29.0375 3.09675C28.6063 2.59363 28.1031 2.16238 27.6719 1.65925C27.4562 1.44363 27.1688 1.228 26.8813 1.01238L26.1625 0.365503ZM32.4156 0.0780029C32.7031 0.149878 32.9188 0.221753 33.1344 0.365503C33.35 0.437378 33.6375 0.581128 33.8531 0.724878C34.2844 1.01238 34.7156 1.29988 35.1469 1.65925C35.9375 2.378 36.5844 3.2405 36.9438 4.24675C37.375 5.253 37.5187 6.33113 37.375 7.40925C37.3031 7.91238 37.1594 8.4155 37.0156 8.91863C36.9437 9.13425 36.8 9.42175 36.7281 9.63738C36.5844 9.853 36.5125 10.0686 36.2969 10.2843V8.84675C36.2969 8.34363 36.225 7.91238 36.225 7.48113C36.0812 6.54675 35.9375 5.68425 35.5781 4.89363C35.2188 4.03113 34.7875 3.31238 34.2844 2.52175C33.9969 2.16238 33.7094 1.73113 33.4219 1.37175C33.2781 1.15613 33.1344 1.01238 32.9188 0.796753C32.775 0.437378 32.5594 0.221753 32.4156 0.0780029Z" fill="#42ADE2"/>
<path d="M5.75036 10.7874C4.31286 11.4343 3.80973 13.1593 4.45661 14.5968L13.5129 33.4999L18.5441 31.128L9.48786 12.153C8.84098 10.7155 7.18786 10.0686 5.75036 10.7874ZM29.541 25.8093L34.8597 23.2936L24.5097 1.73115C23.791 0.293646 22.066 -0.353229 20.5566 0.365521C19.1191 1.08427 18.4722 2.80927 19.191 4.31865L29.541 25.8093Z" fill="#FFDD67"/>
<path d="M20.6285 0.293626C20.4848 0.365501 20.341 0.437376 20.1973 0.581126C21.5629 0.221751 23.0004 0.868626 23.6473 2.16238L33.9973 23.7249L34.9316 23.2936L24.5816 1.73113C23.8629 0.221751 22.1379 -0.425124 20.6285 0.293626Z" fill="#EBA352"/>
<path d="M18.5438 31.0561L24.0782 28.3968L13.5126 6.40301C12.7938 4.89364 10.9251 4.17489 9.4157 4.89364C7.90632 5.61239 7.25945 7.48114 7.9782 8.99051L18.5438 31.0561Z" fill="#FFDD67"/>
<path d="M23.2157 26.6717L28.7501 24.0124L18.1844 2.01863C17.4657 0.50925 15.5969 -0.2095 14.0876 0.581125C12.5782 1.29988 11.9313 3.16863 12.6501 4.678L23.2157 26.6717Z" fill="#FFDD67"/>
<path d="M14.0871 0.509244C13.9434 0.581119 13.7996 0.724869 13.6559 0.796744C15.0215 0.437369 16.6027 1.08424 17.2496 2.44987L24.6527 17.9749L26.234 18.9092L18.184 2.01862C17.4652 0.437369 15.5965 -0.209506 14.0871 0.509244ZM5.74961 10.7874C5.60586 10.8592 5.46211 10.9311 5.31836 11.0749C6.61211 10.7155 7.97773 11.3624 8.55273 12.6561L13.9434 23.9405L15.5246 24.8749L9.48711 12.2249C8.84023 10.7155 7.18711 10.0686 5.74961 10.7874Z" fill="#EBA352"/>
<path d="M42.2624 8.63111C40.3218 7.12174 37.1593 8.77486 35.5781 13.9499C34.4999 17.5436 34.3562 18.6217 32.0562 19.6999L30.7624 17.0405C30.7624 17.0405 10.3499 26.8874 11.1406 28.4686C11.1406 28.4686 13.5843 36.0874 17.7531 39.6092C23.9343 44.928 38.3812 39.2499 39.028 25.5217C39.3874 17.5436 44.3468 10.2842 42.2624 8.63111Z" fill="#FFDD67"/>
<path d="M42.2621 8.63112C41.9027 8.34362 41.4715 8.19987 41.0402 8.12799C41.1121 8.19987 41.2559 8.19987 41.3277 8.27174C43.484 9.92487 41.2559 13.7342 40.034 17.1842C39.0277 19.9155 38.1652 22.7186 38.309 25.4499C38.884 37.3811 26.8809 43.0592 19.6934 40.903C26.7371 43.8499 39.8184 38.2436 39.2434 25.8092C39.0996 23.078 39.8902 20.4186 40.9684 17.5436C42.1184 14.0936 44.3465 10.2842 42.2621 8.63112Z" fill="#EBA352"/>
</svg>
