<svg width="255" height="50" viewBox="0 0 255 50" fill="none" xmlns="http://www.w3.org/2000/svg">
<path d="M82.7133 38.6541V14.2434H91.8673C93.7426 14.2434 95.3159 14.5692 96.5873 15.2208C97.8667 15.8723 98.8321 16.7862 99.4837 17.9622C100.143 19.1303 100.473 20.4931 100.473 22.0505C100.473 23.6159 100.139 24.9747 99.4718 26.1269C98.8123 27.2711 97.8389 28.1571 96.5516 28.7849C95.2643 29.4047 93.683 29.7146 91.8077 29.7146H85.2879V26.0435H91.2117C92.3083 26.0435 93.2062 25.8925 93.9055 25.5905C94.6048 25.2806 95.1213 24.8317 95.455 24.2437C95.7967 23.6477 95.9675 22.9166 95.9675 22.0505C95.9675 21.1844 95.7967 20.4454 95.455 19.8335C95.1133 19.2137 94.5928 18.7449 93.8936 18.427C93.1943 18.1013 92.2924 17.9384 91.1879 17.9384H87.1353V38.6541H82.7133ZM95.3239 27.593L101.367 38.6541H96.4324L90.4966 27.593H95.3239ZM107.678 38.6541H102.958L111.552 14.2434H117.011L125.617 38.6541H120.897L114.377 19.2495H114.186L107.678 38.6541ZM107.833 29.0829H120.706V32.6348H107.833V29.0829ZM148.892 14.2434V38.6541H144.959L133.457 22.0267H133.254V38.6541H128.832V14.2434H132.789L144.279 30.8827H144.494V14.2434H148.892ZM161.982 38.6541H153.71V14.2434H162.149C164.573 14.2434 166.655 14.7321 168.395 15.7095C170.143 16.6789 171.486 18.0734 172.424 19.8931C173.361 21.7128 173.83 23.89 173.83 26.4249C173.83 28.9677 173.357 31.1529 172.412 32.9805C171.474 34.8081 170.119 36.2106 168.347 37.188C166.583 38.1654 164.462 38.6541 161.982 38.6541ZM158.132 34.828H161.768C163.468 34.828 164.887 34.5181 166.023 33.8983C167.159 33.2705 168.014 32.3368 168.586 31.0972C169.158 29.8497 169.444 28.2922 169.444 26.4249C169.444 24.5575 169.158 23.008 168.586 21.7764C168.014 20.5368 167.167 19.611 166.047 18.9992C164.934 18.3794 163.552 18.0695 161.899 18.0695H158.132V34.828ZM199.844 26.4487C199.844 29.0789 199.351 31.3316 198.366 33.2069C197.389 35.0743 196.054 36.5046 194.361 37.4979C192.677 38.4912 190.765 38.9878 188.628 38.9878C186.49 38.9878 184.575 38.4912 182.883 37.4979C181.198 36.4967 179.863 35.0624 178.878 33.195C177.901 31.3197 177.412 29.071 177.412 26.4487C177.412 23.8185 177.901 21.5698 178.878 19.7024C179.863 17.8271 181.198 16.3928 182.883 15.3996C184.575 14.4063 186.49 13.9096 188.628 13.9096C190.765 13.9096 192.677 14.4063 194.361 15.3996C196.054 16.3928 197.389 17.8271 198.366 19.7024C199.351 21.5698 199.844 23.8185 199.844 26.4487ZM195.398 26.4487C195.398 24.5973 195.108 23.0358 194.528 21.7644C193.956 20.4851 193.161 19.5196 192.144 18.8681C191.127 18.2085 189.955 17.8788 188.628 17.8788C187.301 17.8788 186.129 18.2085 185.112 18.8681C184.095 19.5196 183.296 20.4851 182.716 21.7644C182.144 23.0358 181.858 24.5973 181.858 26.4487C181.858 28.3002 182.144 29.8656 182.716 31.1449C183.296 32.4163 184.095 33.3818 185.112 34.0413C186.129 34.6929 187.301 35.0187 188.628 35.0187C189.955 35.0187 191.127 34.6929 192.144 34.0413C193.161 33.3818 193.956 32.4163 194.528 31.1449C195.108 29.8656 195.398 28.3002 195.398 26.4487ZM204.025 14.2434H209.436L216.683 31.9316H216.969L224.216 14.2434H229.627V38.6541H225.384V21.8836H225.158L218.411 38.5825H215.241L208.494 21.8479H208.268V38.6541H204.025V14.2434ZM249.83 14.2434H254.252V30.1914C254.252 31.9395 253.839 33.4771 253.013 34.8041C252.194 36.1311 251.042 37.1681 249.556 37.9151C248.07 38.6541 246.334 39.0236 244.348 39.0236C242.353 39.0236 240.613 38.6541 239.127 37.9151C237.641 37.1681 236.489 36.1311 235.67 34.8041C234.852 33.4771 234.443 31.9395 234.443 30.1914V14.2434H238.865V29.8219C238.865 30.839 239.087 31.7448 239.532 32.5395C239.985 33.3341 240.621 33.9579 241.439 34.4108C242.258 34.8558 243.227 35.0783 244.348 35.0783C245.468 35.0783 246.437 34.8558 247.256 34.4108C248.082 33.9579 248.718 33.3341 249.163 32.5395C249.608 31.7448 249.83 30.839 249.83 29.8219V14.2434Z" fill="white"/>
<path d="M58.3819 43.0024C57.2409 41.879 43.4146 36.5309 40.9058 35.5221C38.4101 34.5309 37.4145 31.7841 37.4145 31.7841C37.4145 31.7841 36.2912 32.4053 36.2912 30.6608C36.2912 28.9141 37.4145 31.7841 38.5379 25.0483C38.5379 25.0483 41.6547 24.1739 41.0357 16.9425H40.2868C40.2868 16.9425 42.1591 9.21107 40.2868 6.59428C38.4079 3.97749 37.6722 2.23297 33.5466 0.981848C29.4276 -0.267072 30.9254 -0.018169 27.9342 0.109586C24.9385 0.235139 22.4451 1.85631 22.4451 2.72637C22.4451 2.72637 20.5728 2.85193 19.8283 3.60084C19.0794 4.34975 17.8327 7.8388 17.8327 8.71106C17.8327 9.58332 18.4561 15.4513 19.0794 16.6936L18.3371 16.9359C17.7137 24.1695 20.8305 25.0461 20.8305 25.0461C21.9539 31.7819 23.0773 28.9118 23.0773 30.6586C23.0773 32.4031 21.9539 31.7819 21.9539 31.7819C21.9539 31.7819 20.9561 34.5265 18.4627 35.5199C15.9692 36.5177 2.12758 41.879 1.00201 43.0002C-0.121362 44.1456 0.0041905 49.3792 0.0041905 49.3792H59.3753C59.3753 49.3792 59.514 44.1412 58.3774 42.998L58.3819 43.0024ZM32.1589 20.7113C31.2823 20.1606 30.4342 18.046 30.4342 17.0989V16.579C30.203 16.3456 29.1699 16.3676 28.9584 16.579V17.0989C28.9584 18.046 28.1104 20.1606 27.2337 20.7113C26.3527 21.2619 23.6874 21.2333 22.6433 20.1914C21.6015 19.1496 21.4891 16.5284 21.227 16.2707C20.9671 16.0063 20.8195 15.8632 20.8195 15.8632L20.8856 14.9513C20.8856 14.9513 22.7359 14.4953 24.6258 14.4953C26.5157 14.4953 28.5972 15.6032 28.5972 15.6032C29.1082 15.4402 30.3263 15.4204 30.7933 15.6032C30.7933 15.6032 32.8748 14.4975 34.7647 14.4975C36.6546 14.4975 38.5093 14.9557 38.5093 14.9557L38.5709 15.8676L38.1634 16.2751C37.9035 16.535 37.789 19.1562 36.7471 20.1958C35.7119 21.2377 33.0422 21.2685 32.1611 20.7157L32.1589 20.7113Z" fill="white"/>
</svg>
