<svg width="255" height="50" viewBox="0 0 255 50" fill="none" xmlns="http://www.w3.org/2000/svg">
<path d="M83.1585 39.1041V14.6934H92.3125C94.1878 14.6934 95.7611 15.0192 97.0325 15.6708C98.3119 16.3224 99.2773 17.2362 99.9289 18.4122C100.588 19.5803 100.918 20.9431 100.918 22.5005C100.918 24.0659 100.584 25.4247 99.917 26.5769C99.2575 27.7212 98.284 28.6072 96.9968 29.2349C95.7095 29.8547 94.1282 30.1646 92.2529 30.1646H85.733V26.4935H91.6569C92.7535 26.4935 93.6514 26.3425 94.3507 26.0406C95.0499 25.7307 95.5664 25.2817 95.9002 24.6937C96.2419 24.0977 96.4127 23.3667 96.4127 22.5005C96.4127 21.6344 96.2419 20.8954 95.9002 20.2836C95.5585 19.6638 95.038 19.1949 94.3388 18.8771C93.6395 18.5513 92.7376 18.3884 91.6331 18.3884H87.5805V39.1041H83.1585ZM95.7691 28.043L101.812 39.1041H96.8776L90.9418 28.043H95.7691ZM108.123 39.1041H103.403L111.997 14.6934H117.456L126.062 39.1041H121.342L114.822 19.6995H114.631L108.123 39.1041ZM108.278 29.5329H121.151V33.0849H108.278V29.5329ZM149.337 14.6934V39.1041H145.404L133.902 22.4767H133.699V39.1041H129.277V14.6934H133.234L144.725 31.3327H144.939V14.6934H149.337ZM162.428 39.1041H154.156V14.6934H162.594C165.018 14.6934 167.1 15.1821 168.84 16.1595C170.588 17.1289 171.931 18.5235 172.869 20.3432C173.807 22.1628 174.275 24.3401 174.275 26.8749C174.275 29.4177 173.803 31.6029 172.857 33.4305C171.919 35.2581 170.564 36.6606 168.792 37.638C167.028 38.6154 164.907 39.1041 162.428 39.1041ZM158.578 35.278H162.213C163.914 35.278 165.332 34.9681 166.468 34.3483C167.605 33.7206 168.459 32.7869 169.031 31.5473C169.603 30.2997 169.889 28.7423 169.889 26.8749C169.889 25.0076 169.603 23.4581 169.031 22.2264C168.459 20.9868 167.612 20.0611 166.492 19.4492C165.38 18.8294 163.997 18.5195 162.344 18.5195H158.578V35.278ZM200.289 26.8988C200.289 29.5289 199.797 31.7817 198.811 33.657C197.834 35.5243 196.499 36.9547 194.806 37.9479C193.122 38.9412 191.211 39.4378 189.073 39.4378C186.936 39.4378 185.021 38.9412 183.328 37.9479C181.643 36.9467 180.309 35.5124 179.323 33.6451C178.346 31.7698 177.857 29.521 177.857 26.8988C177.857 24.2686 178.346 22.0198 179.323 20.1525C180.309 18.2772 181.643 16.8429 183.328 15.8496C185.021 14.8563 186.936 14.3597 189.073 14.3597C191.211 14.3597 193.122 14.8563 194.806 15.8496C196.499 16.8429 197.834 18.2772 198.811 20.1525C199.797 22.0198 200.289 24.2686 200.289 26.8988ZM195.843 26.8988C195.843 25.0473 195.553 23.4859 194.973 22.2145C194.401 20.9352 193.606 19.9697 192.589 19.3181C191.572 18.6586 190.4 18.3288 189.073 18.3288C187.746 18.3288 186.574 18.6586 185.557 19.3181C184.54 19.9697 183.741 20.9352 183.161 22.2145C182.589 23.4859 182.303 25.0473 182.303 26.8988C182.303 28.7502 182.589 30.3156 183.161 31.595C183.741 32.8663 184.54 33.8318 185.557 34.4913C186.574 35.1429 187.746 35.4687 189.073 35.4687C190.4 35.4687 191.572 35.1429 192.589 34.4913C193.606 33.8318 194.401 32.8663 194.973 31.595C195.553 30.3156 195.843 28.7502 195.843 26.8988ZM204.47 14.6934H209.881L217.128 32.3816H217.414L224.661 14.6934H230.072V39.1041H225.829V22.3337H225.603L218.856 39.0326H215.686L208.94 22.2979H208.713V39.1041H204.47V14.6934ZM250.276 14.6934H254.698V30.6414C254.698 32.3896 254.284 33.9272 253.458 35.2542C252.64 36.5812 251.487 37.6182 250.001 38.3651C248.516 39.1041 246.779 39.4736 244.793 39.4736C242.798 39.4736 241.058 39.1041 239.572 38.3651C238.086 37.6182 236.934 36.5812 236.116 35.2542C235.297 33.9272 234.888 32.3896 234.888 30.6414V14.6934H239.31V30.2719C239.31 31.289 239.532 32.1949 239.977 32.9895C240.43 33.7841 241.066 34.4079 241.884 34.8608C242.703 35.3058 243.672 35.5283 244.793 35.5283C245.913 35.5283 246.883 35.3058 247.701 34.8608C248.527 34.4079 249.163 33.7841 249.608 32.9895C250.053 32.1949 250.276 31.289 250.276 30.2719V14.6934Z" fill="#517ACA"/>
<path d="M58.827 43.4524C57.6861 42.3291 43.8598 36.981 41.351 35.9721C38.8553 34.9809 37.8597 32.2342 37.8597 32.2342C37.8597 32.2342 36.7364 32.8553 36.7364 31.1108C36.7364 29.3641 37.8597 32.2342 38.9831 25.4984C38.9831 25.4984 42.0999 24.6239 41.4809 17.3925H40.732C40.732 17.3925 42.6043 9.66111 40.732 7.04432C38.8531 4.42754 38.1174 2.68301 33.9918 1.43189C29.8728 0.182971 31.3706 0.431874 28.3794 0.559629C25.3837 0.685182 22.8903 2.30636 22.8903 3.17641C22.8903 3.17641 21.018 3.30197 20.2735 4.05088C19.5246 4.79979 18.2779 8.28884 18.2779 9.1611C18.2779 10.0334 18.9012 15.9013 19.5246 17.1436L18.7823 17.3859C18.1589 24.6195 21.2757 25.4962 21.2757 25.4962C22.3991 32.232 23.5225 29.3619 23.5225 31.1086C23.5225 32.8531 22.3991 32.232 22.3991 32.232C22.3991 32.232 21.4013 34.9765 18.9078 35.9699C16.4144 36.9678 2.57277 42.3291 1.4472 43.4502C0.323828 44.5956 0.449381 49.8292 0.449381 49.8292H59.8205C59.8205 49.8292 59.9592 44.5912 58.8226 43.448L58.827 43.4524ZM32.6041 21.1613C31.7275 20.6106 30.8794 18.4961 30.8794 17.5489V17.0291C30.6481 16.7956 29.6151 16.8176 29.4036 17.0291V17.5489C29.4036 18.4961 28.5556 20.6106 27.6789 21.1613C26.7979 21.712 24.1326 21.6833 23.0885 20.6415C22.0467 19.5996 21.9343 16.9784 21.6722 16.7207C21.4123 16.4564 21.2647 16.3132 21.2647 16.3132L21.3308 15.4013C21.3308 15.4013 23.1811 14.9453 25.071 14.9453C26.9609 14.9453 29.0424 16.0533 29.0424 16.0533C29.5534 15.8903 30.7715 15.8705 31.2385 16.0533C31.2385 16.0533 33.32 14.9475 35.2099 14.9475C37.0998 14.9475 38.9545 15.4057 38.9545 15.4057L39.0161 16.3176L38.6086 16.7251C38.3487 16.985 38.2342 19.6062 37.1923 20.6459C36.157 21.6877 33.4874 21.7186 32.6063 21.1657L32.6041 21.1613Z" fill="#517ACA"/>
</svg>
