<svg width="689" height="513" viewBox="0 0 689 513" fill="none" xmlns="http://www.w3.org/2000/svg">
<path d="M688.48 450.816H0V451.161H688.48V450.816Z" fill="#EBEBEB"/>
<path d="M619.494 472.972H573.889V473.316H619.494V472.972Z" fill="#EBEBEB"/>
<path d="M456.077 476.717H444.111V477.061H456.077V476.717Z" fill="#EBEBEB"/>
<path d="M572.512 460.194H546.088V460.538H572.512V460.194Z" fill="#EBEBEB"/>
<path d="M131.706 462.507H72.2353V462.851H131.706V462.507Z" fill="#EBEBEB"/>
<path d="M152.691 462.507H143.975V462.851H152.691V462.507Z" fill="#EBEBEB"/>
<path d="M310.022 468.318H181.029V468.662H310.022V468.318Z" fill="#EBEBEB"/>
<path d="M326.339 389.404H60.4623C58.3794 389.4 56.3831 388.571 54.9116 387.096C53.4401 385.622 52.6136 383.625 52.6136 381.542V7.79359C52.6318 5.72268 53.4662 3.74255 54.9358 2.2833C56.4054 0.824053 58.3913 0.00354758 60.4623 0H326.339C328.425 0 330.425 0.828362 331.899 2.30286C333.373 3.77735 334.202 5.77719 334.202 7.86244V381.542C334.202 383.627 333.373 385.627 331.899 387.101C330.425 388.576 328.425 389.404 326.339 389.404V389.404ZM60.4623 0.275393C58.4707 0.27904 56.562 1.07274 55.155 2.48228C53.7481 3.89182 52.9579 5.80202 52.9579 7.79359V381.542C52.9579 383.533 53.7481 385.443 55.155 386.853C56.562 388.263 58.4707 389.056 60.4623 389.06H326.339C328.332 389.056 330.242 388.263 331.652 386.854C333.061 385.445 333.854 383.535 333.858 381.542V7.79359C333.854 5.80076 333.061 3.89059 331.652 2.48144C330.242 1.07229 328.332 0.279033 326.339 0.275393H60.4623Z" fill="#EBEBEB"/>
<path d="M624.189 389.404H358.299C356.214 389.4 354.217 388.571 352.743 387.097C351.269 385.624 350.44 383.626 350.436 381.542V7.79359C350.458 5.72142 351.295 3.7413 352.767 2.28244C354.239 0.823571 356.226 0.00350889 358.299 0H624.189C626.258 0.00716638 628.241 0.829273 629.707 2.28813C631.174 3.74699 632.006 5.72506 632.024 7.79359V381.542C632.024 383.622 631.2 385.618 629.731 387.092C628.263 388.565 626.27 389.397 624.189 389.404V389.404ZM358.299 0.275393C356.306 0.279033 354.396 1.07229 352.986 2.48144C351.577 3.89059 350.784 5.80076 350.78 7.79359V381.542C350.784 383.535 351.577 385.445 352.986 386.854C354.396 388.263 356.306 389.056 358.299 389.06H624.189C626.182 389.056 628.092 388.263 629.502 386.854C630.911 385.445 631.704 383.535 631.708 381.542V7.79359C631.704 5.80076 630.911 3.89059 629.502 2.48144C628.092 1.07229 626.182 0.279033 624.189 0.275393H358.299Z" fill="#EBEBEB"/>
<path d="M531.692 302.374C552.078 281.989 552.078 248.937 531.692 228.552C511.307 208.166 478.255 208.166 457.87 228.552C437.484 248.937 437.484 281.989 457.87 302.374C478.255 322.76 511.307 322.76 531.692 302.374Z" fill="#F0F0F0"/>
<path d="M97.351 173.497H240.293C240.293 173.497 238.228 162.178 211.776 162.825C217.023 146.302 202.22 128.264 168.829 127.575C135.438 126.887 147.169 153.737 147.169 153.737C147.169 153.737 91.0446 144.099 108.022 164.092C80.2079 165.152 74.7138 168.705 97.351 173.497Z" fill="#F0F0F0"/>
<path d="M468.4 244.286C471.65 228.024 443.863 210.207 392.668 209.518C341.472 208.83 367.152 235.364 367.152 235.364C367.152 235.364 278.738 225.725 310.422 245.567C268.259 246.517 260.851 250.028 296.831 254.82H514.983C514.983 254.82 508.566 243.722 468.4 244.286Z" fill="#FAFAFA"/>
<path d="M440.035 122.453H588.141C588.141 122.453 621.188 103.479 582.013 101.028C588.747 84.8069 572.209 57.2953 514.391 56.6619C456.572 56.0285 486.549 93.9913 486.549 93.9913C486.549 93.9913 398.423 68.5863 429.336 108.986C415.842 108.986 367.827 122.453 440.035 122.453Z" fill="#F5F5F5"/>
<path d="M129.861 318.945H196.409C196.409 318.945 211.267 310.422 193.656 309.306C196.685 302.022 189.249 289.657 163.266 289.368C137.283 289.079 150.763 306.139 150.763 306.139C150.763 306.139 111.162 294.738 125.042 312.887C118.997 312.9 97.4061 318.945 129.861 318.945Z" fill="#F5F5F5"/>
<path d="M126.859 59.099C126.859 59.099 108.078 47.0644 95.0102 64.18C105.737 53.5499 126.13 64.2626 126.13 64.2626C126.13 64.2626 149.538 53.66 157.249 64.2626C148.946 47.1746 126.859 59.099 126.859 59.099Z" fill="#F0F0F0"/>
<path d="M227.543 217.56C227.543 217.56 216.251 210.317 208.375 220.616C214.847 214.214 227.116 220.616 227.116 220.616C227.116 220.616 241.161 214.227 245.856 220.616C240.844 210.427 227.543 217.56 227.543 217.56Z" fill="#F0F0F0"/>
<path d="M433.426 49.7633C433.426 49.7633 427.78 46.1419 423.787 51.2917C427.023 48.0834 433.164 51.2917 433.164 51.2917C433.164 51.2917 440.186 48.1109 442.527 51.2917C440.076 46.1694 433.426 49.7633 433.426 49.7633Z" fill="#F5F5F5"/>
<path d="M571.535 173.387C571.535 173.387 565.875 169.765 561.896 174.915C565.118 171.721 571.259 174.915 571.259 174.915C571.259 174.915 578.282 171.721 580.622 174.915C578.171 169.793 571.535 173.387 571.535 173.387Z" fill="#F5F5F5"/>
<path d="M344.24 513C491.688 513 611.219 506.021 611.219 497.413C611.219 488.804 491.688 481.826 344.24 481.826C196.792 481.826 77.2612 488.804 77.2612 497.413C77.2612 506.021 196.792 513 344.24 513Z" fill="#F5F5F5"/>
<path d="M253.856 415.525C258.552 442.706 236.63 456.09 215.301 449.343C200.774 444.73 186.385 448.269 176.636 452.923C176.252 453.095 175.82 453.133 175.412 453.029C175.004 452.926 174.642 452.688 174.386 452.353C174.129 452.019 173.993 451.608 173.999 451.187C174.006 450.765 174.154 450.358 174.419 450.032C176.06 448.065 177.812 446.194 179.666 444.428C179.97 444.14 180.167 443.758 180.226 443.344C180.284 442.929 180.2 442.507 179.987 442.147C179.774 441.787 179.445 441.51 179.054 441.361C178.663 441.212 178.233 441.201 177.834 441.329C169.352 443.918 156.849 446.341 144.787 443.505C144.425 443.421 144.095 443.231 143.842 442.958C143.589 442.685 143.423 442.343 143.367 441.975C143.311 441.607 143.366 441.231 143.526 440.895C143.686 440.559 143.943 440.278 144.264 440.09C156.312 432.957 174.695 414.217 191.921 408.131C192.342 407.981 192.696 407.684 192.917 407.295C193.137 406.905 193.21 406.449 193.121 406.01C193.032 405.572 192.788 405.18 192.434 404.906C192.079 404.633 191.638 404.497 191.191 404.523C188.473 404.678 185.769 405.009 183.094 405.515C182.659 405.623 182.2 405.571 181.8 405.367C181.4 405.163 181.088 404.822 180.92 404.406C180.753 403.99 180.741 403.528 180.887 403.104C181.034 402.68 181.329 402.323 181.717 402.1C205.869 387.105 247.853 380.812 253.856 415.525Z" fill="#407BFF"/>
<path opacity="0.7" d="M253.856 415.525C258.552 442.706 236.63 456.09 215.301 449.343C200.774 444.73 186.385 448.269 176.636 452.923C176.252 453.095 175.82 453.133 175.412 453.029C175.004 452.926 174.642 452.688 174.386 452.353C174.129 452.019 173.993 451.608 173.999 451.187C174.006 450.765 174.154 450.358 174.419 450.032C176.06 448.065 177.812 446.194 179.666 444.428C179.97 444.14 180.167 443.758 180.226 443.344C180.284 442.929 180.2 442.507 179.987 442.147C179.774 441.787 179.445 441.51 179.054 441.361C178.663 441.212 178.233 441.201 177.834 441.329C169.352 443.918 156.849 446.341 144.787 443.505C144.425 443.421 144.095 443.231 143.842 442.958C143.589 442.685 143.423 442.343 143.367 441.975C143.311 441.607 143.366 441.231 143.526 440.895C143.686 440.559 143.943 440.278 144.264 440.09C156.312 432.957 174.695 414.217 191.921 408.131C192.342 407.981 192.696 407.684 192.917 407.295C193.137 406.905 193.21 406.449 193.121 406.01C193.032 405.572 192.788 405.18 192.434 404.906C192.079 404.633 191.638 404.497 191.191 404.523C188.473 404.678 185.769 405.009 183.094 405.515C182.659 405.623 182.2 405.571 181.8 405.367C181.4 405.163 181.088 404.822 180.92 404.406C180.753 403.99 180.741 403.528 180.887 403.104C181.034 402.68 181.329 402.323 181.717 402.1C205.869 387.105 247.853 380.812 253.856 415.525Z" fill="white"/>
<path d="M224.224 455.195L214.998 384.172C214.952 383.79 214.989 383.403 215.108 383.037C215.227 382.671 215.425 382.336 215.687 382.055C215.95 381.774 216.271 381.555 216.628 381.411C216.984 381.268 217.368 381.204 217.752 381.225L262.504 384.42C263.106 384.462 263.674 384.712 264.114 385.126C264.553 385.54 264.835 386.093 264.913 386.692L271.798 440.104C271.861 440.695 271.72 441.29 271.4 441.79C271.08 442.291 270.598 442.667 270.036 442.858L227.584 457.357C227.22 457.469 226.837 457.499 226.46 457.447C226.083 457.395 225.722 457.262 225.402 457.056C225.083 456.85 224.812 456.577 224.608 456.256C224.405 455.934 224.273 455.572 224.224 455.195V455.195Z" fill="black"/>
<path d="M215.315 441.866L209.807 399.263C209.761 398.899 209.792 398.528 209.898 398.177C210.004 397.825 210.183 397.499 210.423 397.221C210.664 396.943 210.96 396.719 211.293 396.563C211.625 396.407 211.987 396.323 212.355 396.317L263.743 395.353C264.388 395.341 265.014 395.567 265.502 395.989C265.99 396.411 266.305 396.998 266.387 397.638L270.517 429.019C270.597 429.659 270.439 430.305 270.073 430.835C269.708 431.366 269.16 431.744 268.535 431.897L218.606 444.069C218.244 444.167 217.865 444.186 217.495 444.124C217.125 444.063 216.772 443.924 216.46 443.715C216.149 443.506 215.885 443.233 215.688 442.915C215.49 442.596 215.363 442.238 215.315 441.866V441.866Z" fill="#263238"/>
<path d="M439.367 434.238L412.52 438.659L412.748 440.045L439.595 435.624L439.367 434.238Z" fill="#407BFF"/>
<path d="M405.538 439.814L397.644 441.114L397.872 442.499L405.766 441.2L405.538 439.814Z" fill="#407BFF"/>
<path d="M518.88 380.853C518.88 380.853 481.853 346.168 428.813 353.039L261.746 368.832C258.683 369.121 255.709 370.024 253.003 371.487C250.296 372.95 247.911 374.943 245.991 377.347C244.072 379.751 242.656 382.518 241.828 385.481C241 388.444 240.778 391.544 241.174 394.595L246.848 438.383C247.243 441.434 248.248 444.375 249.805 447.029C251.361 449.684 253.436 451.998 255.906 453.833C258.376 455.668 261.19 456.986 264.181 457.71C267.171 458.434 270.277 458.548 273.313 458.046L438.892 430.713C491.919 423.842 518.88 380.853 518.88 380.853Z" fill="#407BFF"/>
<path d="M430.348 397.303C431.05 381.607 418.895 368.315 403.199 367.613C387.503 366.911 374.211 379.066 373.509 394.762C372.807 410.458 384.962 423.75 400.658 424.452C416.353 425.154 429.646 412.999 430.348 397.303Z" fill="white"/>
<path opacity="0.3" d="M421.074 397.556C420.713 401.944 418.86 406.076 415.824 409.265C412.787 412.454 408.751 414.508 404.385 415.084C404.11 415.084 403.821 415.153 403.532 415.167C402.314 415.284 401.087 415.284 399.869 415.167C399.442 415.167 399.002 415.071 398.588 415.002L397.666 414.823C393.831 413.943 390.357 411.91 387.711 408.998C385.065 406.086 383.374 402.435 382.864 398.533C382.752 397.62 382.701 396.7 382.712 395.779C382.956 391.034 384.943 386.546 388.293 383.177C391.643 379.807 396.119 377.794 400.863 377.522C405.607 377.251 410.283 378.741 413.996 381.706C417.708 384.672 420.195 388.904 420.978 393.59C421.151 394.905 421.183 396.234 421.074 397.556V397.556Z" fill="#407BFF"/>
<path opacity="0.3" d="M421.074 397.556C420.713 401.944 418.86 406.076 415.824 409.265C412.787 412.454 408.751 414.508 404.385 415.084C404.11 415.084 403.821 415.153 403.532 415.167C402.313 415.277 401.087 415.277 399.869 415.167C399.442 415.167 399.002 415.071 398.588 415.002L397.666 414.823C393.831 413.943 390.357 411.91 387.711 408.998C385.065 406.086 383.374 402.435 382.864 398.533C382.752 397.62 382.701 396.7 382.712 395.779C383.154 391.546 385.05 387.597 388.079 384.606C391.107 381.615 395.08 379.768 399.318 379.38C409.852 378.127 419.504 385.108 420.909 394.967C421.025 395.825 421.08 396.69 421.074 397.556V397.556Z" fill="#407BFF"/>
<path d="M361.961 353.025L370.567 352.171L371.779 332.508L363.173 333.362L361.961 353.025Z" fill="#CF7A64"/>
<path d="M312.556 358.133L321.024 357.293L322.828 337.286L314.36 338.126L312.556 358.133Z" fill="#CF7A64"/>
<path d="M321.506 355.393L311.978 356.343C311.812 356.361 311.658 356.435 311.54 356.553C311.422 356.671 311.348 356.825 311.331 356.991L310.601 364.674C310.586 364.858 310.612 365.044 310.676 365.218C310.74 365.391 310.841 365.549 310.972 365.68C311.103 365.811 311.26 365.912 311.434 365.976C311.608 366.04 311.793 366.065 311.978 366.051C315.296 365.665 316.88 365.307 321.066 364.894C323.641 364.633 327.097 364.399 330.704 364.041C334.312 363.683 334.298 360.13 332.797 359.91C326.092 359.139 325.265 357.376 322.938 355.71C322.514 355.436 322.006 355.324 321.506 355.393V355.393Z" fill="#263238"/>
<path d="M370.815 350.395L361.562 351.331C361.395 351.344 361.237 351.416 361.119 351.535C361 351.654 360.928 351.811 360.915 351.978L360.185 359.662C360.168 359.847 360.192 360.033 360.255 360.208C360.319 360.383 360.419 360.542 360.551 360.673C360.682 360.804 360.841 360.905 361.016 360.968C361.19 361.032 361.377 361.056 361.562 361.039C364.894 360.653 369.686 359.965 373.886 359.552C378.802 359.056 378.829 359.318 384.585 358.739C388.055 358.381 388.578 354.774 387.091 354.608C380.275 353.823 379.091 353.796 372.908 350.849C372.263 350.516 371.541 350.36 370.815 350.395V350.395Z" fill="#263238"/>
<path d="M337.81 77.0272C339.958 77.22 342.381 77.454 344.694 77.5642C347.008 77.6744 349.321 77.757 351.579 77.757C353.756 77.7518 355.93 77.623 358.092 77.3714C359.808 77.1933 361.488 76.7618 363.077 76.0909L360.543 79.9739C360.543 80.4283 360.64 80.4283 360.543 80.1529C360.427 79.7307 360.26 79.3239 360.047 78.9412C359.402 77.7666 358.641 76.6595 357.775 75.6365C355.793 73.2612 353.664 71.0124 351.4 68.9031C349.087 66.6862 346.65 64.5382 344.185 62.4039C341.72 60.2696 339.159 58.1491 336.68 56.0974L339.985 50.9476C343.056 52.5173 345.947 54.2247 348.867 56.001C351.786 57.7773 354.595 59.705 357.376 61.7705C360.248 63.859 362.959 66.1604 365.486 68.6553C366.889 70.0721 368.157 71.6164 369.273 73.2681C369.959 74.2863 370.523 75.3816 370.953 76.5315C371.576 78.1432 371.793 79.8832 371.586 81.5987L371.283 84.0221L369.025 85.523C366.306 87.2534 363.275 88.4367 360.102 89.0067C357.38 89.5648 354.617 89.9056 351.841 90.0257C349.169 90.1771 346.539 90.1496 343.937 90.0257C341.335 89.9017 338.815 89.709 336.061 89.2959L337.81 77.0272Z" fill="#CE7A63"/>
<path d="M342.863 53.7015L337.796 47.3538L333.995 56.4555C333.995 56.4555 338.594 61.8669 343.469 59.2094L342.863 53.7015Z" fill="#CF7A64"/>
<path d="M331.076 44.0214L330.222 54.3486L333.995 56.3865L337.782 47.3261L331.076 44.0214Z" fill="#CF7A64"/>
<path d="M324.866 45.3434L332.577 42.1488C332.702 42.0837 332.839 42.0464 332.98 42.0394C333.121 42.0323 333.261 42.0558 333.392 42.1081C333.523 42.1604 333.641 42.2403 333.738 42.3424C333.835 42.4445 333.908 42.5664 333.954 42.6996L338.925 58.5484C338.985 58.8271 338.944 59.1179 338.811 59.3698C338.677 59.6216 338.459 59.8183 338.195 59.9254L330.484 63.1199C330.359 63.185 330.222 63.2224 330.081 63.2294C329.94 63.2364 329.8 63.213 329.669 63.1607C329.538 63.1084 329.42 63.0284 329.323 62.9263C329.226 62.8243 329.153 62.7024 329.107 62.5691L324.136 46.8167C324.05 46.5244 324.078 46.2104 324.213 45.9373C324.348 45.6643 324.581 45.4522 324.866 45.3434V45.3434Z" fill="#263238"/>
<path d="M329.41 92.1462C335.014 98.9208 357.982 92.5731 357.982 92.5731L356.04 77.1098C356.04 77.1098 350.243 75.3748 338.746 75.0168C326.959 74.59 323.269 84.7244 329.41 92.1462Z" fill="#407BFF"/>
<path opacity="0.2" d="M371.779 332.522L371.146 342.656L362.553 343.51L363.173 333.376L371.779 332.522Z" fill="black"/>
<path opacity="0.2" d="M314.346 338.14L322.828 337.286L321.892 347.6L313.424 348.453L314.346 338.14Z" fill="black"/>
<path d="M347.063 79.2716C350.395 87.9189 358.574 113.696 355.724 152.608L310.394 157.166C309.21 150.281 309.017 112.429 298.167 80.3869C303.068 78.9248 308.058 77.7796 313.107 76.9583C319.49 75.9395 325.926 75.2913 332.384 75.0168C335.683 75.0122 338.98 75.2007 342.257 75.5814C343.319 75.6979 344.329 76.1036 345.176 76.7543C346.023 77.405 346.676 78.2757 347.063 79.2716V79.2716Z" fill="#407BFF"/>
<path opacity="0.2" d="M329.644 86.3353L327.868 86.5694C328.047 101.716 328.267 105.847 314.594 120.002C312.125 122.514 309.885 125.243 307.902 128.154C308.081 129.944 308.26 131.679 308.425 133.359C311.964 130.123 316.687 125.882 320.212 122.935C336.116 109.661 330.098 86.1426 329.644 86.3353Z" fill="black"/>
<path opacity="0.2" d="M309.031 87.4783C310.408 92.7796 310.408 105.833 307.103 121.228C305.578 108.472 302.938 95.8756 299.213 83.5815V83.5815C302.146 82.9068 307.682 82.5075 309.031 87.4783Z" fill="black"/>
<path d="M313.368 58.7273C315.365 64.7859 316.935 72.3867 313.107 76.9582C313.107 76.9582 316.384 82.9755 327.909 81.8189C338.429 80.7586 332.384 75.0167 332.384 75.0167C325.252 74.0666 324.549 65.5019 325.155 60.5724L313.368 58.7273Z" fill="#CF7A64"/>
<path d="M328.405 81.2407L331.159 83.7468C331.255 83.834 331.326 83.9444 331.367 84.0673C331.408 84.1903 331.417 84.3217 331.393 84.449L330.828 86.9688C330.8 87.1077 330.73 87.2343 330.626 87.3307C330.522 87.4271 330.391 87.4884 330.25 87.5059L327.565 87.9052C327.441 87.9243 327.314 87.9115 327.196 87.8682C327.078 87.8248 326.973 87.7523 326.89 87.6573L325.045 85.4542C324.946 85.3262 324.892 85.1687 324.892 85.0067C324.892 84.8446 324.946 84.6872 325.045 84.5592L327.345 81.3371C327.406 81.2584 327.483 81.1932 327.57 81.1454C327.658 81.0976 327.754 81.0683 327.854 81.0593C327.953 81.0502 328.053 81.0617 328.148 81.0929C328.243 81.1241 328.33 81.1744 328.405 81.2407V81.2407Z" fill="#263238"/>
<path d="M327.551 81.158C326.395 84.1651 324.874 87.0185 323.021 89.6538C323.021 89.6538 311.826 84.5591 311.152 77.2612C311.139 77.1281 311.161 76.9941 311.213 76.8714C311.266 76.7487 311.349 76.6413 311.454 76.5589C311.881 76.2285 312.652 75.6226 313.382 75.0167C313.467 74.9394 313.568 74.882 313.678 74.8487C313.788 74.8154 313.903 74.807 314.017 74.8242C314.13 74.8413 314.239 74.8836 314.334 74.9478C314.429 75.0121 314.508 75.0968 314.566 75.1957C315.461 76.7792 318.353 79.8636 327.551 81.158Z" fill="white"/>
<path d="M327.95 81.0754C330.29 82.8415 332.244 85.0672 333.692 87.6159C334.762 85.7513 335.405 83.6732 335.576 81.5307C335.748 79.3881 335.443 77.2342 334.684 75.2233C334.635 75.1046 334.56 74.9984 334.465 74.9126C334.37 74.8267 334.256 74.7635 334.133 74.7276C333.651 74.6036 332.756 74.3833 331.833 74.2043C331.711 74.1843 331.586 74.1929 331.468 74.2294C331.35 74.266 331.242 74.3295 331.152 74.4149C331.063 74.5004 330.995 74.6054 330.953 74.7218C330.911 74.8382 330.896 74.9627 330.911 75.0856C331.142 76.2704 330.978 77.4984 330.443 78.5806C329.908 79.6629 329.032 80.5394 327.95 81.0754V81.0754Z" fill="white"/>
<path d="M329.562 86.239C330.002 86.0463 334.463 107.114 319.069 119.906C312.79 125.124 302.697 134.446 302.711 134.433C303.647 130.729 306.594 125.014 313.988 117.524C327.358 103.988 327.345 100.312 327.895 86.542L329.562 86.239Z" fill="#263238"/>
<path opacity="0.2" d="M325.155 60.5862C324.663 64.0312 325.14 67.5452 326.532 70.7344C325.437 70.6841 324.356 70.4706 323.324 70.101C319.193 68.7241 316.921 65.9702 314.374 61.8393C314.085 60.7515 313.768 59.705 313.437 58.686L325.155 60.5862Z" fill="black"/>
<path d="M320.515 39.9318C322.153 26.9747 331.682 40.6892 329.038 47.1333C327.413 51.0715 320.116 43.0575 320.515 39.9318Z" fill="#263238"/>
<path d="M307.406 51.691C310.67 59.5672 312.184 64.3453 317.637 67.1543C325.83 71.4091 334.381 64.5243 333.5 55.877C332.715 48.0971 327.51 36.5169 318.615 35.856C316.662 35.694 314.702 36.0439 312.926 36.8712C311.151 37.6985 309.621 38.9746 308.49 40.5735C307.358 42.1724 306.663 44.0388 306.473 45.9885C306.283 47.9382 306.604 49.9037 307.406 51.691Z" fill="#CF7A64"/>
<path d="M311.083 59.3056C312.122 59.1235 313.088 58.6463 313.864 57.9311C314.641 57.2158 315.195 56.2925 315.461 55.2712C313.112 54.3278 311.075 52.7438 309.582 50.6996C309.582 50.6996 313.079 45.6737 312.708 42.7684C317.196 42.7684 327.716 38.4309 325.334 33.6391C322.952 28.8473 313.506 26.4652 307.998 29.8525C304.526 32.2185 300.413 33.4632 296.212 33.4188C297.464 34.1611 298.825 34.7002 300.246 35.0161C298.695 36.5324 297.48 38.3581 296.681 40.3745C295.881 42.3909 295.515 44.553 295.606 46.7202C295.867 52.8752 292.521 55.3538 292.521 55.3538C292.521 55.3538 296.652 55.9734 297.919 54.1558C297.354 56.1662 300.756 63.2162 308.232 64.1939C316.604 65.2817 311.083 59.3056 311.083 59.3056Z" fill="#263238"/>
<path d="M307.654 63.0785C310.752 64.4555 313.162 64.9236 314.759 63.9873C316.356 63.051 315.902 59.8564 313.864 58.0251C312.033 56.414 308.425 54.8856 306.332 56.6481C304.239 58.4106 304.46 61.6189 307.654 63.0785Z" fill="#CF7A64"/>
<path d="M355.724 152.608C355.724 152.608 375.221 216.72 376.598 240.968C378.113 267.502 374.285 338.016 374.285 338.016L358.96 339.572C358.96 339.572 356.095 272.431 352.212 246.462C347.999 218.276 326.835 155.583 326.835 155.583L355.724 152.608Z" fill="#263238"/>
<path opacity="0.2" d="M342.298 182.833L339.889 196.905C343.262 208.293 346.636 220.424 349.101 230.957C349.837 214.633 347.531 198.314 342.298 182.833V182.833Z" fill="black"/>
<path d="M357.693 335.744L358.188 341.403L375.332 339.682L375.827 333.279L357.693 335.744Z" fill="#407BFF"/>
<path d="M339.641 154.219C339.641 154.219 345.989 211.542 343.772 236.286C341.307 263.371 325.623 344.391 325.623 344.391L310.105 345.947C310.105 345.947 318.642 267.819 318.642 241.298C318.642 212.451 310.38 157.221 310.38 157.221L339.641 154.219Z" fill="#263238"/>
<path d="M309.568 340.99L309.348 346.319L326.408 344.598L328.143 338.567L309.568 340.99Z" fill="#407BFF"/>
<path d="M320.253 50.0113C320.474 50.6722 321.011 51.0853 321.424 50.9476C321.837 50.8099 322.016 50.1627 321.782 49.5706C321.548 48.9785 321.038 48.4966 320.611 48.6343C320.184 48.772 320.019 49.3503 320.253 50.0113Z" fill="#263238"/>
<path d="M327.579 47.6291C327.799 48.2901 328.336 48.7031 328.749 48.5654C329.162 48.4278 329.341 47.7806 329.107 47.1885C328.873 46.5964 328.364 46.1145 327.937 46.2522C327.51 46.3899 327.358 46.9819 327.579 47.6291Z" fill="#263238"/>
<path d="M325.362 48.7168C326.826 50.4614 328.516 52.0033 330.388 53.3021C330.056 53.7673 329.623 54.1523 329.123 54.4287C328.623 54.7051 328.067 54.8659 327.496 54.8994L325.362 48.7168Z" fill="#BA4D3C"/>
<path d="M325.871 57.5845C325.92 57.5632 325.958 57.5243 325.978 57.4756C325.999 57.427 326 57.3723 325.981 57.3229C325.96 57.2741 325.922 57.2347 325.874 57.2119C325.826 57.1891 325.771 57.1845 325.72 57.199C324.919 57.5005 324.059 57.6115 323.209 57.5231C322.358 57.4346 321.539 57.1492 320.818 56.6895C320.779 56.6516 320.727 56.6304 320.673 56.6304C320.619 56.6304 320.567 56.6516 320.529 56.6895C320.494 56.7296 320.475 56.7809 320.475 56.8341C320.475 56.8872 320.494 56.9385 320.529 56.9786C321.304 57.5047 322.195 57.8347 323.125 57.9402C324.056 58.0457 324.998 57.9237 325.871 57.5845V57.5845Z" fill="#263238"/>
<path d="M317.224 48.3451C317.281 48.3254 317.334 48.2928 317.377 48.2498C317.419 48.2069 317.452 48.1547 317.472 48.0973C317.609 47.6158 317.861 47.1749 318.206 46.8127C318.552 46.4505 318.98 46.1777 319.455 46.0181C319.506 46.0055 319.555 45.9824 319.597 45.9501C319.64 45.9179 319.675 45.8772 319.701 45.8306C319.727 45.784 319.743 45.7326 319.748 45.6795C319.753 45.6265 319.747 45.573 319.73 45.5224C319.701 45.4193 319.633 45.3316 319.541 45.2776C319.448 45.2237 319.338 45.2078 319.234 45.2332C318.633 45.4252 318.088 45.7615 317.646 46.2127C317.204 46.664 316.88 47.2164 316.701 47.8219C316.676 47.8948 316.672 47.9731 316.69 48.048C316.708 48.1228 316.746 48.1913 316.8 48.2457C316.855 48.3001 316.923 48.3382 316.998 48.3558C317.073 48.3733 317.151 48.3697 317.224 48.3451V48.3451Z" fill="#263238"/>
<path d="M329.961 43.9389C330.02 43.9152 330.072 43.8773 330.112 43.8287C330.184 43.7522 330.224 43.6513 330.224 43.5464C330.224 43.4416 330.184 43.3407 330.112 43.2641C329.644 42.8229 329.078 42.4972 328.462 42.3131C327.845 42.129 327.194 42.0916 326.56 42.2039C326.509 42.2182 326.462 42.2423 326.42 42.275C326.379 42.3077 326.344 42.3483 326.319 42.3944C326.293 42.4405 326.277 42.4912 326.271 42.5435C326.265 42.5959 326.27 42.649 326.284 42.6996C326.297 42.7516 326.32 42.8005 326.352 42.8434C326.384 42.8862 326.425 42.9222 326.471 42.9492C326.517 42.9762 326.568 42.9936 326.621 43.0004C326.675 43.0072 326.728 43.0032 326.78 42.9888V42.9888C327.275 42.9124 327.781 42.9509 328.258 43.1014C328.736 43.2518 329.172 43.5101 329.534 43.8562C329.59 43.9083 329.66 43.9437 329.736 43.9583C329.811 43.9728 329.889 43.9661 329.961 43.9389V43.9389Z" fill="#263238"/>
<path d="M292.769 94.3631L304.308 99.031C304.308 99.031 294.807 127.286 296.859 131.114C299.613 136.319 307.062 144.622 311.482 150.144C311.077 152.223 310.126 154.157 308.728 155.748C299.447 151.342 284.824 137.503 284.067 132.202C282.401 120.112 292.769 94.3631 292.769 94.3631Z" fill="#CF7A64"/>
<path d="M298.167 80.3869C288.735 83.4438 287.413 104.415 287.413 104.415L302.009 111.906C306.205 106.91 309.217 101.031 310.821 94.7073C313.368 84.0634 306.456 77.7018 298.167 80.3869Z" fill="#407BFF"/>
<path d="M324.494 356.632C325.071 356.625 325.626 356.415 326.064 356.04C326.201 355.896 326.299 355.719 326.35 355.527C326.4 355.334 326.401 355.132 326.353 354.939C326.337 354.823 326.29 354.713 326.217 354.621C326.145 354.529 326.049 354.458 325.94 354.415C324.949 354.03 322.415 355.971 322.126 356.192C322.107 356.225 322.096 356.263 322.096 356.302C322.096 356.341 322.107 356.379 322.126 356.412C322.135 356.45 322.156 356.484 322.186 356.508C322.215 356.533 322.252 356.548 322.291 356.55C323.02 356.666 323.759 356.693 324.494 356.632V356.632ZM325.527 354.76C325.618 354.738 325.712 354.738 325.802 354.76C325.845 354.779 325.882 354.81 325.908 354.849C325.935 354.888 325.951 354.933 325.954 354.98C325.989 355.111 325.99 355.249 325.959 355.381C325.928 355.513 325.865 355.636 325.775 355.737C324.872 356.261 323.805 356.423 322.787 356.192C323.594 355.521 324.525 355.016 325.527 354.705V354.76Z" fill="#407BFF"/>
<path d="M322.277 356.509C322.277 356.509 322.277 356.509 322.374 356.509C323.2 355.944 324.66 353.92 324.357 352.997C324.308 352.854 324.212 352.731 324.084 352.648C323.957 352.566 323.805 352.529 323.654 352.543C323.5 352.538 323.346 352.566 323.204 352.625C323.061 352.684 322.933 352.774 322.828 352.887C321.947 353.782 322.057 356.247 322.057 356.343C322.054 356.381 322.063 356.419 322.083 356.451C322.103 356.483 322.132 356.508 322.167 356.522L322.277 356.509ZM323.558 352.901H323.654C323.916 352.901 323.957 353.025 323.971 353.066C324.15 353.617 323.241 355.132 322.456 355.82C322.392 354.855 322.628 353.893 323.131 353.066C323.257 352.957 323.419 352.898 323.585 352.901H323.558Z" fill="#407BFF"/>
<path d="M374.533 351.524C375.259 351.522 375.961 351.263 376.516 350.794C376.642 350.663 376.732 350.502 376.778 350.326C376.824 350.15 376.824 349.965 376.777 349.789C376.757 349.678 376.709 349.574 376.64 349.485C376.57 349.397 376.481 349.326 376.378 349.28C375.277 348.811 372.082 350.877 371.724 351.111C371.692 351.137 371.667 351.171 371.653 351.21C371.638 351.249 371.634 351.29 371.641 351.331C371.652 351.372 371.675 351.408 371.707 351.435C371.739 351.462 371.779 351.479 371.82 351.483C372.721 351.581 373.629 351.595 374.533 351.524ZM375.841 349.61C375.968 349.58 376.1 349.58 376.227 349.61C376.268 349.627 376.304 349.656 376.331 349.692C376.358 349.729 376.374 349.772 376.378 349.817C376.409 349.932 376.41 350.053 376.381 350.168C376.352 350.284 376.294 350.39 376.213 350.477C375.758 351.001 374.368 351.207 372.454 351.097C373.512 350.407 374.681 349.904 375.91 349.61H375.841Z" fill="#407BFF"/>
<path d="M371.862 351.483H371.944C372.908 350.932 374.698 348.894 374.437 347.958C374.368 347.737 374.175 347.476 373.61 347.476C373.411 347.47 373.213 347.508 373.03 347.587C372.847 347.665 372.684 347.782 372.55 347.93C371.886 348.93 371.567 350.119 371.641 351.317C371.642 351.351 371.651 351.384 371.668 351.413C371.685 351.442 371.709 351.466 371.738 351.483C371.757 351.492 371.778 351.497 371.8 351.497C371.821 351.497 371.842 351.492 371.862 351.483ZM373.5 347.847H373.624C373.996 347.847 374.037 347.985 374.051 348.027C374.216 348.591 373.018 350.175 372.041 350.904C372.013 349.926 372.292 348.963 372.839 348.15C373.018 347.977 373.252 347.87 373.5 347.847V347.847Z" fill="#407BFF"/>
<path d="M309.403 148.959L317.513 149.235L312.57 157.689C312.57 157.689 305.478 157.207 304.762 151.672L309.403 148.959Z" fill="#CF7A64"/>
<path d="M321.314 152.058L316.398 159.493L312.501 157.689L317.513 149.235L321.314 152.058Z" fill="#CF7A64"/>
</svg>
