<svg width="30" height="30" viewBox="0 0 30 30" fill="none" xmlns="http://www.w3.org/2000/svg">
<path d="M5.484 29.5961C5.26863 29.8016 5.0043 29.9354 4.72205 29.9818C4.4398 30.0282 4.15134 29.9853 3.89053 29.8581C3.62973 29.7309 3.4074 29.5247 3.24966 29.2637C3.09192 29.0026 3.00531 28.6976 3 28.3845V24.6922C2.20435 24.6922 1.44129 24.3453 0.87868 23.7279C0.316071 23.1105 0 22.2731 0 21.3999V9.87687C0 9.0037 0.316071 8.1663 0.87868 7.54887C1.44129 6.93145 2.20435 6.58458 3 6.58458H19.5C20.2956 6.58458 21.0587 6.93145 21.6213 7.54887C22.1839 8.1663 22.5 9.0037 22.5 9.87687V21.3999C22.5 22.2731 22.1839 23.1105 21.6213 23.7279C21.0587 24.3453 20.2956 24.6922 19.5 24.6922H12.0045L5.484 29.5961ZM24 16.4894C23.9952 16.6919 23.9952 16.8944 24 17.0969V16.4878C24.0075 16.3117 24.009 14.1058 24.006 9.87193C24.0048 8.56304 23.5302 7.30819 22.6864 6.38312C21.8426 5.45806 20.6987 4.93844 19.506 4.93844H7.5V3.29229C7.5 2.41912 7.81607 1.58171 8.37868 0.96429C8.94129 0.346865 9.70435 0 10.5 0L27 0C27.7956 0 28.5587 0.346865 29.1213 0.96429C29.6839 1.58171 30 2.41912 30 3.29229V14.8153C30 15.6885 29.6839 16.5259 29.1213 17.1433C28.5587 17.7607 27.7956 18.1076 27 18.1076V21.7999C26.9947 22.1131 26.9081 22.4181 26.7503 22.6791C26.5926 22.9401 26.3703 23.1463 26.1095 23.2735C25.8487 23.4007 25.5602 23.4437 25.2779 23.3972C24.9957 23.3508 24.7314 23.217 24.516 23.0115L24 22.623V16.4894Z" fill="white"/>
</svg>
