<svg width="69" height="69" viewBox="0 0 69 69" fill="none" xmlns="http://www.w3.org/2000/svg">
<path d="M57.5 48.875C57.5 49.6375 57.1971 50.3688 56.6579 50.9079C56.1188 51.4471 55.3875 51.75 54.625 51.75C53.8625 51.75 53.1312 51.4471 52.5921 50.9079C52.0529 50.3688 51.75 49.6375 51.75 48.875V14.375C51.75 13.6125 51.4471 12.8812 50.9079 12.3421C50.3688 11.8029 49.6375 11.5 48.875 11.5H8.625C7.8625 11.5 7.13123 11.8029 6.59207 12.3421C6.0529 12.8812 5.75 13.6125 5.75 14.375V51.75C5.75 53.275 6.3558 54.7375 7.43414 55.8159C8.51247 56.8942 9.97501 57.5 11.5 57.5H54.625C59.3803 57.5 63.25 53.6303 63.25 48.875V20.125H57.5V48.875ZM34.5 20.125H43.125V25.875H34.5V20.125ZM34.5 31.625H43.125V37.375H34.5V31.625ZM14.375 20.125H28.75V37.375H14.375V20.125ZM14.375 48.875V43.125H43.125V48.875H14.375Z" fill="black"/>
</svg>
