<svg width="49" height="31" viewBox="0 0 49 31" fill="none" xmlns="http://www.w3.org/2000/svg">
<path fill-rule="evenodd" clip-rule="evenodd" d="M0.0855792 8.68876C0.0866688 8.43876 0.137108 8.19144 0.234005 7.96098C0.330902 7.73052 0.472348 7.52145 0.65023 7.34579C0.828111 7.17012 1.03893 7.0313 1.27058 6.9373C1.50224 6.8433 1.75017 6.79596 2.00017 6.798L21.0653 6.94645C22.1183 6.95455 23.0213 7.8126 23.0826 8.86271L23.2058 10.9758L29.5631 0.874565C29.6945 0.663248 29.8671 0.480558 30.0706 0.337394C30.2741 0.194231 30.5044 0.093527 30.7477 0.0412898C30.991 -0.0109473 31.2423 -0.0136478 31.4866 0.0333509C31.731 0.0803495 31.9634 0.176084 32.1699 0.314843L48.1338 10.8871C48.5564 11.1668 48.8508 11.6026 48.9524 12.0991C49.054 12.5955 48.9546 13.112 48.6759 13.5352L38.2473 29.3823C37.6678 30.2627 36.4728 30.526 35.5792 29.9708L23.2058 22.2827V28.5948C23.2058 29.6477 22.352 30.501 21.3012 30.501H1.89652C1.64659 30.5013 1.39908 30.4522 1.16824 30.3564C0.937395 30.2606 0.727789 30.1201 0.551499 29.943C0.37521 29.7658 0.235722 29.5555 0.141076 29.3242C0.0464296 29.0929 -0.0015048 28.8452 3.59992e-05 28.5953L0.0858174 8.68876H0.0855792ZM2.90397 10.2838L2.85893 27.395L20.522 27.4124L20.5137 20.3164L19.0949 19.3349C18.6639 19.0371 18.529 18.4271 18.7954 17.9743L20.6021 14.9062L20.491 10.2004L2.90397 10.2838ZM31.4398 3.46873L22.27 17.7156L36.7969 26.8465L45.7591 12.8978L31.4398 3.46873Z" fill="white"/>
<path d="M27.0356 18.7188C28.0884 18.7188 28.9419 17.8653 28.9419 16.8125C28.9419 15.7597 28.0884 14.9062 27.0356 14.9062C25.9829 14.9062 25.1294 15.7597 25.1294 16.8125C25.1294 17.8653 25.9829 18.7188 27.0356 18.7188Z" fill="white"/>
<path d="M33.4692 17.5273C34.522 17.5273 35.3755 16.6739 35.3755 15.6211C35.3755 14.5683 34.522 13.7148 33.4692 13.7148C32.4164 13.7148 31.563 14.5683 31.563 15.6211C31.563 16.6739 32.4164 17.5273 33.4692 17.5273Z" fill="white"/>
<path d="M40.1411 16.3359C41.1939 16.3359 42.0474 15.4825 42.0474 14.4297C42.0474 13.3769 41.1939 12.5234 40.1411 12.5234C39.0883 12.5234 38.2349 13.3769 38.2349 14.4297C38.2349 15.4825 39.0883 16.3359 40.1411 16.3359Z" fill="white"/>
<path d="M6.06689 16.0977C7.11969 16.0977 7.97314 15.2442 7.97314 14.1914C7.97314 13.1386 7.11969 12.2852 6.06689 12.2852C5.0141 12.2852 4.16064 13.1386 4.16064 14.1914C4.16064 15.2442 5.0141 16.0977 6.06689 16.0977Z" fill="white"/>
<path d="M11.5474 21.1016C12.6002 21.1016 13.4536 20.2481 13.4536 19.1953C13.4536 18.1425 12.6002 17.2891 11.5474 17.2891C10.4946 17.2891 9.64111 18.1425 9.64111 19.1953C9.64111 20.2481 10.4946 21.1016 11.5474 21.1016Z" fill="white"/>
<path d="M16.7896 15.8594C17.8423 15.8594 18.6958 15.0059 18.6958 13.9531C18.6958 12.9003 17.8423 12.0469 16.7896 12.0469C15.7368 12.0469 14.8833 12.9003 14.8833 13.9531C14.8833 15.0059 15.7368 15.8594 16.7896 15.8594Z" fill="white"/>
<path d="M6.30518 25.8672C7.35797 25.8672 8.21143 25.0137 8.21143 23.9609C8.21143 22.9081 7.35797 22.0547 6.30518 22.0547C5.25238 22.0547 4.39893 22.9081 4.39893 23.9609C4.39893 25.0137 5.25238 25.8672 6.30518 25.8672Z" fill="white"/>
<path d="M16.7896 25.8672C17.8423 25.8672 18.6958 25.0137 18.6958 23.9609C18.6958 22.9081 17.8423 22.0547 16.7896 22.0547C15.7368 22.0547 14.8833 22.9081 14.8833 23.9609C14.8833 25.0137 15.7368 25.8672 16.7896 25.8672Z" fill="white"/>
</svg>
