<svg width="691" height="548" viewBox="0 0 691 548" fill="none" xmlns="http://www.w3.org/2000/svg">
<g opacity="0.9">
<path d="M599.013 448.144L82.5489 433.345C58.5134 432.65 38.7488 414.276 36.3651 390.34L11.4358 144.026C8.65481 116.117 30.3066 91.7837 58.3148 91.3864L633.179 83.4408C662.18 83.0435 684.925 108.37 681.349 137.173L647.878 406.33C644.799 430.763 623.644 448.938 599.013 448.144Z" fill="#EAF9F3"/>
<mask id="mask0_21_17" style="mask-type:alpha" maskUnits="userSpaceOnUse" x="11" y="83" width="671" height="366">
<path d="M599.013 448.144L82.5489 433.345C58.5134 432.65 38.7488 414.276 36.3651 390.34L11.4358 144.026C8.65481 116.117 30.3066 91.7837 58.3148 91.3864L633.179 83.4408C662.18 83.0435 684.925 108.37 681.349 137.173L647.878 406.33C644.799 430.763 623.644 448.938 599.013 448.144Z" fill="#EAF9F3"/>
</mask>
<g mask="url(#mask0_21_17)">
<path d="M177.499 492.937H-235.176C-243.419 492.937 -250.074 486.283 -250.074 478.039V243.942C-250.074 235.698 -243.419 229.044 -235.176 229.044H177.499C185.742 229.044 192.397 235.698 192.397 243.942V477.94C192.397 486.183 185.742 492.937 177.499 492.937Z" stroke="#B8D8C7" stroke-width="1.78776" stroke-miterlimit="10" stroke-linecap="round" stroke-linejoin="round"/>
<path d="M722.865 477.145H306.615C298.371 477.145 291.717 470.491 291.717 462.247V120.289C291.717 112.045 298.371 105.391 306.615 105.391H722.865C731.108 105.391 737.763 112.045 737.763 120.289V462.247C737.763 470.491 731.108 477.145 722.865 477.145Z" stroke="#B8D8C7" stroke-width="1.78776" stroke-miterlimit="10" stroke-linecap="round" stroke-linejoin="round"/>
<path d="M63.4795 229.044H43.3175C41.1325 229.044 39.3447 227.455 39.0467 225.27L37.4576 210.968C37.1596 208.485 39.1461 206.2 41.7284 206.2H65.0686C67.6509 206.2 69.538 208.385 69.3393 210.968L67.7502 225.27C67.4522 227.455 65.6645 229.044 63.4795 229.044Z" stroke="#B8D8C7" stroke-width="1.78776" stroke-miterlimit="10" stroke-linecap="round" stroke-linejoin="round"/>
<path d="M50.9651 206.3C50.9651 206.3 43.0195 205.505 41.4304 194.779C41.4304 194.779 48.5814 196.864 50.8658 201.93C50.8658 201.93 51.859 190.607 57.2223 189.515C57.2223 189.515 59.606 197.957 55.8318 202.128C55.8318 202.128 58.7121 197.361 66.0618 197.46C66.0618 197.46 64.1747 204.214 56.9243 206.2" fill="#B8D8C7"/>
<path d="M174.42 278.406H84.8333C82.5489 278.406 80.6618 276.519 80.6618 274.235V247.021C80.6618 244.736 82.5489 242.849 84.8333 242.849H174.42C176.704 242.849 178.591 244.736 178.591 247.021V274.235C178.591 276.519 176.704 278.406 174.42 278.406Z" stroke="#B8D8C7" stroke-width="1.78776" stroke-miterlimit="10" stroke-linecap="round" stroke-linejoin="round"/>
<path d="M139.857 252.483H119.198C118.403 252.483 117.708 251.788 117.708 250.994C117.708 250.199 118.403 249.504 119.198 249.504H139.857C140.651 249.504 141.346 250.199 141.346 250.994C141.346 251.788 140.75 252.483 139.857 252.483Z" fill="#B8D8C7"/>
<path d="M174.42 323.894H84.8333C82.5489 323.894 80.6618 322.007 80.6618 319.723V292.509C80.6618 290.225 82.5489 288.338 84.8333 288.338H174.42C176.704 288.338 178.591 290.225 178.591 292.509V319.723C178.591 322.007 176.704 323.894 174.42 323.894Z" stroke="#B8D8C7" stroke-width="1.78776" stroke-miterlimit="10" stroke-linecap="round" stroke-linejoin="round"/>
<path d="M139.857 297.972H119.198C118.403 297.972 117.708 297.277 117.708 296.482C117.708 295.688 118.403 294.992 119.198 294.992H139.857C140.651 294.992 141.346 295.688 141.346 296.482C141.346 297.277 140.75 297.972 139.857 297.972Z" fill="#B8D8C7"/>
<path d="M634.371 356.074H544.784C542.5 356.074 540.613 354.187 540.613 351.903V324.689C540.613 322.405 542.5 320.518 544.784 320.518H634.371C636.655 320.518 638.542 322.405 638.542 324.689V351.903C638.641 354.187 636.754 356.074 634.371 356.074Z" stroke="#B8D8C7" stroke-width="1.78776" stroke-miterlimit="10" stroke-linecap="round" stroke-linejoin="round"/>
<path d="M599.907 330.052H579.248C578.454 330.052 577.758 329.357 577.758 328.563C577.758 327.768 578.454 327.073 579.248 327.073H599.907C600.701 327.073 601.397 327.768 601.397 328.563C601.397 329.456 600.701 330.052 599.907 330.052Z" fill="#B8D8C7"/>
<path d="M519.358 356.074H429.772C427.487 356.074 425.6 354.187 425.6 351.903V324.689C425.6 322.405 427.487 320.518 429.772 320.518H519.358C521.643 320.518 523.53 322.405 523.53 324.689V351.903C523.629 354.187 521.742 356.074 519.358 356.074Z" stroke="#B8D8C7" stroke-width="1.78776" stroke-miterlimit="10" stroke-linecap="round" stroke-linejoin="round"/>
<path d="M484.894 330.052H464.236C463.441 330.052 462.746 329.357 462.746 328.563C462.746 327.768 463.441 327.073 464.236 327.073H484.894C485.689 327.073 486.384 327.768 486.384 328.563C486.384 329.456 485.689 330.052 484.894 330.052Z" fill="#B8D8C7"/>
<path d="M60.2019 278.406H-29.3847C-31.6691 278.406 -33.5562 276.519 -33.5562 274.235V247.021C-33.5562 244.736 -31.6691 242.849 -29.3847 242.849H60.2019C62.4863 242.849 64.3733 244.736 64.3733 247.021V274.235C64.3733 276.519 62.4863 278.406 60.2019 278.406Z" stroke="#B8D8C7" stroke-width="1.78776" stroke-miterlimit="10" stroke-linecap="round" stroke-linejoin="round"/>
<path d="M25.6385 252.483H4.97998C4.18542 252.483 3.49018 251.788 3.49018 250.994C3.49018 250.199 4.18542 249.504 4.97998 249.504H25.6385C26.4331 249.504 27.1283 250.199 27.1283 250.994C27.1283 251.788 26.5324 252.483 25.6385 252.483Z" fill="#B8D8C7"/>
<path d="M60.2019 323.894H-29.3847C-31.6691 323.894 -33.5562 322.007 -33.5562 319.723V292.509C-33.5562 290.225 -31.6691 288.338 -29.3847 288.338H60.2019C62.4863 288.338 64.3733 290.225 64.3733 292.509V319.723C64.3733 322.007 62.4863 323.894 60.2019 323.894Z" stroke="#B8D8C7" stroke-width="1.78776" stroke-miterlimit="10" stroke-linecap="round" stroke-linejoin="round"/>
<path d="M25.6385 297.972H4.97998C4.18542 297.972 3.49018 297.277 3.49018 296.482C3.49018 295.688 4.18542 294.992 4.97998 294.992H25.6385C26.4331 294.992 27.1283 295.688 27.1283 296.482C27.1283 297.277 26.5324 297.972 25.6385 297.972Z" fill="#B8D8C7"/>
<path d="M764.877 209.577H312.971C310.488 209.577 308.402 207.491 308.402 205.008V125.85C308.402 123.367 310.488 121.282 312.971 121.282H764.877C767.36 121.282 769.446 123.367 769.446 125.85V205.008C769.446 207.491 767.36 209.577 764.877 209.577Z" stroke="#B8D8C7" stroke-width="1.78776" stroke-miterlimit="10" stroke-linecap="round" stroke-linejoin="round"/>
<path d="M764.877 307.805H312.971C310.488 307.805 308.402 305.719 308.402 303.236V224.078C308.402 221.595 310.488 219.509 312.971 219.509H764.877C767.36 219.509 769.446 221.595 769.446 224.078V303.236C769.446 305.719 767.36 307.805 764.877 307.805Z" stroke="#B8D8C7" stroke-width="1.78776" stroke-miterlimit="10" stroke-linecap="round" stroke-linejoin="round"/>
<path d="M348.627 159.619H338.794V209.577H348.627V159.619Z" stroke="#B8D8C7" stroke-width="1.78776" stroke-miterlimit="10" stroke-linecap="round" stroke-linejoin="round"/>
<path d="M358.758 173.226H348.528V209.577H358.758V173.226Z" stroke="#B8D8C7" stroke-width="1.78776" stroke-miterlimit="10" stroke-linecap="round" stroke-linejoin="round"/>
<path d="M644.998 257.747H635.165V307.705H644.998V257.747Z" stroke="#B8D8C7" stroke-width="1.78776" stroke-miterlimit="10" stroke-linecap="round" stroke-linejoin="round"/>
<path d="M655.129 271.354H644.899V307.705H655.129V271.354Z" stroke="#B8D8C7" stroke-width="1.78776" stroke-miterlimit="10" stroke-linecap="round" stroke-linejoin="round"/>
<path d="M624.935 257.747H615.103V307.705H624.935V257.747Z" stroke="#B8D8C7" stroke-width="1.78776" stroke-miterlimit="10" stroke-linecap="round" stroke-linejoin="round"/>
<path d="M615.235 259.597L605.858 256.636L590.816 304.276L600.192 307.236L615.235 259.597Z" stroke="#B8D8C7" stroke-width="1.78776" stroke-miterlimit="10" stroke-linecap="round" stroke-linejoin="round"/>
<path d="M635.165 271.354H624.935V307.705H635.165V271.354Z" stroke="#B8D8C7" stroke-width="1.78776" stroke-miterlimit="10" stroke-linecap="round" stroke-linejoin="round"/>
<path d="M512.306 159.619H502.474V209.577H512.306V159.619Z" stroke="#B8D8C7" stroke-width="1.78776" stroke-miterlimit="10" stroke-linecap="round" stroke-linejoin="round"/>
<path d="M522.536 173.226H512.306V209.577H522.536V173.226Z" stroke="#B8D8C7" stroke-width="1.78776" stroke-miterlimit="10" stroke-linecap="round" stroke-linejoin="round"/>
<path d="M415.271 159.619H405.438V209.577H415.271V159.619Z" stroke="#B8D8C7" stroke-width="1.78776" stroke-miterlimit="10" stroke-linecap="round" stroke-linejoin="round"/>
<path d="M405.591 161.388L396.215 158.428L381.172 206.068L390.549 209.028L405.591 161.388Z" stroke="#B8D8C7" stroke-width="1.78776" stroke-miterlimit="10" stroke-linecap="round" stroke-linejoin="round"/>
<path d="M425.401 173.226H415.171V209.577H425.401V173.226Z" stroke="#B8D8C7" stroke-width="1.78776" stroke-miterlimit="10" stroke-linecap="round" stroke-linejoin="round"/>
<path d="M644.799 166.075L645.892 151.276C645.991 150.283 645.197 149.489 644.203 149.489H639.933H635.662C634.669 149.489 633.973 150.283 633.973 151.276L635.066 166.075C635.066 166.075 626.127 171.836 626.226 176.603C626.326 180.278 628.511 197.857 629.504 205.604C629.802 207.789 631.59 209.379 633.775 209.379H639.933H646.09C648.275 209.379 650.063 207.789 650.361 205.604C651.354 197.857 653.539 180.278 653.639 176.603C653.738 171.836 644.799 166.075 644.799 166.075Z" fill="#B8D8C7"/>
<path d="M605.27 166.075L606.362 151.276C606.462 150.283 605.667 149.489 604.674 149.489H600.403H596.133C595.139 149.489 594.444 150.283 594.444 151.276L595.537 166.075C595.537 166.075 586.598 171.836 586.697 176.603C586.796 180.278 588.981 197.857 589.975 205.604C590.273 207.789 592.06 209.379 594.245 209.379H600.403H606.561C608.746 209.379 610.534 207.789 610.832 205.604C611.825 197.857 614.01 180.278 614.109 176.603C614.209 171.836 605.27 166.075 605.27 166.075Z" fill="#B8D8C7"/>
<path d="M10.0453 401.563H959.346" stroke="#B8D8C7" stroke-width="1.78776" stroke-miterlimit="10" stroke-linecap="round" stroke-linejoin="round"/>
</g>
<path d="M109.564 316.048L96.9503 492.441C96.851 493.93 98.0428 495.221 99.5326 495.221C100.923 495.221 102.016 494.228 102.115 492.838L117.311 316.048H109.564Z" fill="#B8D8C7"/>
<path d="M620.168 316.048L632.782 492.441C632.881 493.93 631.689 495.221 630.199 495.221C628.809 495.221 627.716 494.228 627.617 492.838L612.421 316.048H620.168Z" fill="#B8D8C7"/>
<path d="M220.008 97.7429C220.008 97.7429 228.847 115.72 235.204 131.909C241.56 148.098 242.653 163.095 236.495 166.274C227.854 170.743 218.22 171.041 207.096 149.985C195.972 128.929 204.315 81.3551 220.008 97.7429Z" fill="#22272E"/>
<path d="M172.433 426.095C172.533 427.287 168.957 447.449 169.156 448.938C169.454 450.428 153.96 454.302 146.511 447.647C146.511 447.647 147.603 421.327 147.603 417.355C147.603 413.481 171.738 414.971 172.433 426.095Z" fill="#F4C2C9"/>
<path d="M169.454 445.363C169.454 445.363 171.142 452.812 173.625 457.381C176.108 461.949 189.814 474.762 188.325 479.132C186.835 483.502 174.221 483.899 164.488 483.502C154.755 483.104 150.384 479.728 146.511 472.775C142.538 465.823 145.22 461.155 145.716 447.647C145.716 447.647 146.014 445.363 146.61 444.966C146.61 444.966 148.597 448.442 150.881 448.74C153.165 448.938 155.45 443.476 161.012 442.88C166.574 442.383 167.269 447.846 167.865 447.846C168.56 447.846 169.255 446.952 169.454 445.363Z" fill="#517ACA"/>
<path d="M178.492 466.717C178.492 466.717 171.54 463.737 158.628 468.604" stroke="#22272E" stroke-width="1.78776" stroke-miterlimit="10" stroke-linecap="round" stroke-linejoin="round"/>
<path d="M176.009 461.254C176.009 461.254 169.057 458.274 156.145 463.141" stroke="#22272E" stroke-width="1.78776" stroke-miterlimit="10" stroke-linecap="round" stroke-linejoin="round"/>
<path d="M222.093 422.619C222.193 423.81 218.617 443.972 218.816 445.462C219.114 446.952 203.62 450.825 196.171 444.171C196.171 444.171 197.263 417.851 197.263 413.878C197.263 410.005 221.498 411.495 222.093 422.619Z" fill="#F4C2C9"/>
<path d="M219.213 441.787C219.213 441.787 220.902 449.236 223.385 453.805C225.868 458.374 239.574 471.186 238.084 475.556C236.594 479.926 223.981 480.323 214.247 479.926C204.514 479.529 200.144 476.152 196.27 469.2C192.297 462.247 194.979 457.579 195.476 444.072C195.476 444.072 195.774 441.787 196.37 441.39C196.37 441.39 198.356 444.866 200.64 445.164C202.925 445.363 205.209 439.9 210.771 439.304C216.333 438.808 217.028 444.27 217.624 444.27C218.319 444.37 219.015 443.476 219.213 441.787Z" fill="#517ACA"/>
<path d="M228.152 463.24C228.152 463.24 221.2 460.261 208.288 465.128" stroke="#22272E" stroke-width="1.78776" stroke-miterlimit="10" stroke-linecap="round" stroke-linejoin="round"/>
<path d="M225.768 457.778C225.768 457.778 218.816 454.798 205.904 459.665" stroke="#22272E" stroke-width="1.78776" stroke-miterlimit="10" stroke-linecap="round" stroke-linejoin="round"/>
<path d="M128.037 208.286C128.037 208.286 125.058 225.667 133.599 266.488C136.182 278.903 138.267 295.092 139.757 312.075C143.233 350.81 140.254 390.34 138.466 405.933C135.884 428.28 147.306 432.551 159.621 433.544C171.937 434.537 176.506 428.876 177.102 422.619C177.697 416.361 185.047 332.933 187.828 314.062C190.708 295.191 190.907 269.368 190.013 265.594C189.119 261.82 199.846 262.614 195.376 215.934C191.006 169.055 131.613 195.871 128.037 208.286Z" fill="#73C2C7"/>
<path d="M213.552 210.57C213.552 210.57 228.45 274.334 230.238 294.198C232.025 314.062 228.351 411.495 228.45 417.355C228.649 423.214 223.186 428.478 209.877 428.776C196.568 429.074 191.205 420.235 191.304 415.468C191.602 399.576 191.801 336.31 190.808 326.576C189.814 316.843 175.314 268.971 172.433 264.402C169.553 259.734 163.197 225.468 175.711 219.509C188.225 213.55 207.891 204.611 213.552 210.57Z" fill="#73C2C7"/>
<path d="M194.78 83.3415C194.78 83.3415 169.355 82.4476 157.535 80.8585C145.716 79.2694 123.667 79.1701 114.927 96.9483C106.187 114.727 133.301 123.467 132.606 136.08C132.01 148.595 130.123 170.048 130.123 170.048C130.123 170.048 127.64 193.984 124.859 203.022C122.078 212.06 127.342 216.629 129.825 217.423C132.308 218.218 158.131 223.482 177.697 222.389C197.263 221.297 213.254 216.828 214.644 212.457C216.134 208.087 213.751 195.275 214.644 181.867C215.538 168.459 218.121 145.019 218.121 136.08C218.121 127.142 222.491 104.497 218.121 95.1606C213.751 85.8245 203.223 83.6395 194.78 83.3415Z" fill="#517ACA"/>
<path d="M161.409 72.8136C161.409 72.8136 157.337 73.4095 155.946 76.0911C155.053 77.7796 153.96 80.8585 154.059 84.0367C154.159 87.215 158.926 95.9551 172.731 97.5443C186.636 99.1334 191.503 92.3796 192.099 89.7973C192.695 87.215 191.702 80.2626 190.708 79.0707C189.815 77.7796 188.325 76.4884 183.359 75.8925C178.492 75.0979 162.998 72.2177 161.409 72.8136Z" fill="#22272E"/>
<path d="M181.372 133.2C181.372 133.2 185.444 128.929 187.53 125.751C189.616 122.573 192.397 119.097 194.681 117.806C196.966 116.415 201.733 115.62 203.024 114.925C204.415 114.23 205.805 116.713 203.024 118.997C200.243 121.282 201.435 127.936 197.561 131.512C193.589 135.087 182.763 137.272 181.372 133.2Z" fill="#B28D93"/>
<path d="M210.274 74.4027L260.431 71.1251C261.921 71.0258 263.113 72.317 262.914 73.8068L250.598 149.489C250.3 151.177 249.009 152.468 247.321 152.667L199.349 159.222C197.859 159.421 196.568 158.129 196.668 156.64L206.798 77.7796C206.898 75.8925 208.387 74.502 210.274 74.4027Z" fill="#73C2C7"/>
<path d="M245.732 74.6013L226.761 75.5945C226.066 75.5945 225.47 74.9986 225.57 74.3034L225.868 72.317C225.967 71.5224 226.662 70.9265 227.357 70.9265L246.328 69.9333C247.023 69.9333 247.619 70.5292 247.519 71.2245L247.221 73.2109C247.122 74.0054 246.427 74.502 245.732 74.6013Z" fill="#517ACA"/>
<path d="M135.089 151.276C135.089 151.276 141.346 126.148 142.935 116.514C144.525 106.88 138.466 96.1538 129.13 93.7701C118.205 91.0885 114.828 96.849 114.828 96.849C114.828 96.849 110.458 104.497 106.088 128.532C101.718 152.568 99.2346 174.915 114.828 180.377C130.421 185.84 162.402 168.061 172.632 160.414C182.862 152.865 186.636 149.588 188.623 149.091C190.609 148.595 198.455 150.68 202.627 146.012C206.798 141.344 210.374 137.67 210.771 137.67C211.168 137.67 221.1 139.159 222.789 137.868C224.676 136.378 221.895 134.889 219.908 134.591C218.021 134.293 212.261 132.406 212.261 132.406C212.261 132.406 216.73 131.015 219.908 129.823C223.087 128.532 226.364 127.936 226.166 126.248C225.967 124.46 223.981 124.758 221.994 124.659C220.008 124.559 217.326 125.155 217.326 125.155C217.326 125.155 222.789 123.665 224.179 122.076C225.669 120.388 224.378 119.097 221.498 119.395C219.213 119.593 216.035 120.388 216.035 120.388C216.035 120.388 221.597 119.891 221.2 117.408C220.902 115.72 215.936 116.614 212.658 117.011C209.381 117.408 205.209 118.203 201.634 119.097C199.25 119.693 197.065 120.388 195.575 121.083C192.099 122.772 183.359 131.114 181.968 132.803C180.578 134.491 163.097 137.272 148.795 140.45C134.493 143.529 126.15 146.211 121.78 150.283L135.089 151.276Z" fill="#B28D93"/>
<path d="M212.857 116.912C209.579 117.309 205.408 118.103 201.832 118.997C199.449 119.593 197.263 120.289 195.774 120.984" stroke="#896068" stroke-width="1.78776" stroke-miterlimit="10" stroke-linecap="round" stroke-linejoin="round"/>
<path d="M184.948 151.276C182.465 153.064 178.691 156.044 172.731 160.414C162.501 167.962 130.52 185.74 114.927 180.377C99.4333 174.915 101.916 152.568 106.187 128.532C110.557 104.497 114.927 96.849 114.927 96.849C114.927 96.849 118.304 91.0885 129.229 93.7701C138.466 96.0545 144.624 106.781 143.035 116.514C142.042 122.573 139.161 134.889 137.175 143.132C140.651 142.139 144.624 141.245 149.193 140.252C159.323 138.067 171.142 135.981 177.598 134.392C177.499 134.69 176.208 140.053 178.691 145.119C180.975 150.283 184.948 151.276 184.948 151.276Z" fill="#22272E"/>
<path d="M105.194 170.942C105.194 170.942 104.995 165.578 111.55 166.274C118.006 166.969 135.089 173.127 130.222 180.377" stroke="#63737A" stroke-width="1.78776" stroke-miterlimit="10" stroke-linecap="round" stroke-linejoin="round"/>
<path d="M169.653 136.18C169.653 136.18 168.163 141.94 170.844 147.8C173.526 153.561 178.393 156.342 178.393 156.342" stroke="#63737A" stroke-width="1.78776" stroke-miterlimit="10" stroke-linecap="round" stroke-linejoin="round"/>
<path d="M160.614 57.2203C160.614 57.2203 160.316 69.9333 159.522 77.8789C158.727 85.8245 173.526 89.102 180.677 87.7116C187.828 86.3211 188.921 84.136 188.921 84.136C188.921 84.136 188.325 73.4095 188.921 69.536C189.517 65.6625 160.714 53.0489 160.614 57.2203Z" fill="#B28D93"/>
<path d="M188.722 81.2558C188.623 79.6667 188.623 77.581 188.623 75.4952C182.564 75.7932 177.201 70.2313 172.831 65.6626C171.639 75.1973 179.883 81.3551 188.722 81.2558Z" fill="#896068"/>
<path d="M200.442 40.3359C200.442 40.3359 205.408 37.7536 206.898 29.6094C208.387 21.3658 206.6 9.34809 201.038 7.95761C195.376 6.46781 199.349 23.6502 195.575 26.8284C191.801 29.9073 200.442 35.8665 200.442 40.3359Z" fill="#22272E"/>
<path d="M200.243 26.3318C200.243 26.3318 201.932 33.1849 201.336 43.2162C200.74 53.3469 202.726 70.4299 191.702 75.3959C180.677 80.3619 166.077 75.1973 160.118 58.9088C154.159 42.6203 154.059 26.4312 163.197 19.4788C172.433 12.427 196.965 13.4202 200.243 26.3318Z" fill="#B28D93"/>
<path d="M161.31 45.8979C161.31 45.8979 164.687 44.8053 164.786 38.7468C164.786 32.589 168.063 27.5237 174.619 29.3114C181.174 31.0992 190.311 36.1645 195.674 36.0652C202.031 35.8665 204.017 29.0135 204.514 20.5713C205.01 12.0298 202.229 6.86511 198.952 7.75899C195.674 8.65287 192.893 11.4338 188.821 6.26919C183.259 -0.683211 178.293 -0.484571 174.321 2.79299C167.368 8.65287 168.957 11.7318 162.601 9.24879C158.926 7.75899 156.344 8.15627 154.556 15.0093C152.768 21.8624 153.463 23.7495 149.193 23.1536C144.823 22.5577 147.603 45.2026 154.556 50.2679C154.655 50.2679 160.018 45.4013 161.31 45.8979Z" fill="#22272E"/>
<path d="M195.476 47.5863C195.873 48.6788 196.072 49.7713 196.37 50.7645C196.668 51.7577 196.966 52.8503 197.263 53.6448C197.462 54.1414 197.76 54.8367 197.76 55.5319C197.76 56.2271 197.661 57.0217 197.164 57.5183C196.27 58.6108 194.979 58.9088 193.787 58.8095C194.78 58.2135 195.674 57.5183 195.972 56.8231C196.27 56.1278 196.072 55.3333 195.575 54.4394C195.078 53.2475 194.88 52.155 194.88 50.9632C194.979 49.7713 195.178 48.6788 195.476 47.5863Z" fill="#22272E"/>
<path d="M185.842 38.9455C186.736 39.0448 187.431 38.2502 187.133 37.3564C186.835 36.4625 186.636 35.6679 185.643 35.4693C183.557 34.9727 179.088 35.37 176.406 37.3564C173.725 39.3428 176.307 39.74 179.684 39.0448C182.068 38.6475 184.253 38.7468 185.842 38.9455Z" fill="#22272E"/>
<path d="M181.273 58.9088C186.703 58.9088 191.106 54.3286 191.106 48.6788C191.106 43.0289 186.703 38.4489 181.273 38.4489C175.843 38.4489 171.44 43.0289 171.44 48.6788C171.44 54.3286 175.843 58.9088 181.273 58.9088Z" stroke="#22272E" stroke-width="1.78776" stroke-miterlimit="10" stroke-linecap="round" stroke-linejoin="round"/>
<path d="M201.832 58.0149C205.343 58.0149 208.189 53.835 208.189 48.6788C208.189 43.5226 205.343 39.3427 201.832 39.3427C198.322 39.3427 195.476 43.5226 195.476 48.6788C195.476 53.835 198.322 58.0149 201.832 58.0149Z" stroke="#22272E" stroke-width="1.78776" stroke-miterlimit="10" stroke-linecap="round" stroke-linejoin="round"/>
<path d="M195.674 46.5931C195.674 46.5931 194.383 44.8053 190.907 46.5931" stroke="#22272E" stroke-width="1.78776" stroke-miterlimit="10" stroke-linecap="round" stroke-linejoin="round"/>
<path d="M171.838 45.7985L160.018 44.9047" stroke="#22272E" stroke-width="1.78776" stroke-miterlimit="10" stroke-linecap="round" stroke-linejoin="round"/>
<path d="M187.232 65.8612C187.232 65.8612 182.763 65.5632 180.478 61.1931" stroke="#22272E" stroke-width="1.78776" stroke-miterlimit="10" stroke-linecap="round" stroke-linejoin="round"/>
<path d="M182.763 52.453C183.657 52.5523 184.451 51.8571 184.551 50.8639L184.65 49.8707C184.749 48.9768 184.054 48.1822 183.061 48.0829C182.167 47.9836 181.372 48.6788 181.273 49.672L181.174 50.6652C181.074 51.6584 181.77 52.3536 182.763 52.453Z" fill="#22272E"/>
<path d="M197.462 52.7509C198.356 52.8503 199.151 52.155 199.25 51.1618L199.349 50.1686C199.449 49.2747 198.753 48.4802 197.76 48.3809C196.866 48.2815 196.072 48.9768 195.972 49.97L195.873 50.9632C195.873 51.8571 196.568 52.6516 197.462 52.7509Z" fill="#22272E"/>
<path d="M160.912 46.1958C160.912 46.1958 158.032 41.2298 154.159 42.521C150.285 43.8122 150.384 49.7714 152.272 53.3469C154.655 57.9156 160.118 59.3061 162.998 58.8095" fill="#B28D93"/>
<path d="M154.059 49.7713C153.861 49.2747 153.761 48.7781 153.861 48.1822C153.861 47.8843 154.059 47.5863 154.258 47.2883C154.556 46.9904 154.953 46.7917 155.35 46.7917C156.046 46.7917 156.741 47.0897 157.138 47.5863C157.535 47.9836 157.833 48.4802 158.131 48.9768C158.628 49.8707 158.827 50.7646 159.125 51.5591C159.323 51.9564 159.423 52.2543 159.621 52.453C159.82 52.6516 160.316 52.6516 160.813 52.6516C160.515 53.0489 160.018 53.4462 159.323 53.3469C158.628 53.1482 158.231 52.751 157.833 52.3537C157.238 51.4598 156.84 50.6652 156.443 49.8707C156.046 49.0761 155.648 48.4802 155.251 48.3809C155.152 48.3809 155.052 48.2816 154.953 48.3809C154.854 48.3809 154.755 48.4802 154.655 48.6788C154.457 48.7781 154.258 49.2747 154.059 49.7713Z" fill="#22272E"/>
<path d="M212.857 132.505C212.857 132.505 210.97 132.008 209.579 131.909C208.189 131.71 207.195 131.909 207.195 131.909" stroke="#896068" stroke-width="1.78776" stroke-miterlimit="10" stroke-linecap="round" stroke-linejoin="round"/>
<path d="M217.425 125.056C217.425 125.056 207.295 127.241 206.401 127.936" stroke="#896068" stroke-width="1.78776" stroke-miterlimit="10" stroke-linecap="round" stroke-linejoin="round"/>
<path d="M216.234 120.289C216.234 120.289 209.281 121.778 208.884 121.878C207.593 122.275 205.209 122.97 205.209 122.97" stroke="#896068" stroke-width="1.78776" stroke-miterlimit="10" stroke-linecap="round" stroke-linejoin="round"/>
<path d="M137.175 249.107C137.175 249.107 148.795 244.141 148.795 227.256" stroke="#22272E" stroke-width="1.78776" stroke-miterlimit="10" stroke-linecap="round" stroke-linejoin="round"/>
<path d="M25.7379 387.36L19.9773 506.941C19.878 508.332 20.9705 509.424 22.361 509.424C23.5528 509.424 24.6454 508.53 24.7447 507.239L34.776 387.261H25.7379V387.36Z" fill="#B8D8C7"/>
<path d="M82.4496 387.36L88.2101 506.941C88.3095 508.332 87.2169 509.424 85.8265 509.424C84.6346 509.424 83.5421 508.53 83.4428 507.239L73.4115 387.261H82.4496V387.36Z" fill="#B8D8C7"/>
<path d="M64.4727 363.821L64.3733 483.502C64.3733 484.892 63.2808 485.885 61.8903 485.885C60.6985 485.786 59.7053 484.793 59.606 483.601L55.4345 363.325L64.4727 363.821Z" fill="#B8D8C7"/>
<path d="M86.4224 375.74C77.2849 374.448 65.5652 373.654 52.6536 373.654C39.8413 373.654 28.0222 374.448 18.8848 375.74H0.212624V382.493C0.212624 387.36 23.6521 391.333 52.6536 391.333C81.5557 391.333 105.095 387.36 105.095 382.493V375.74H86.4224Z" fill="#22272E"/>
<path d="M52.6536 384.579C81.6159 384.579 105.095 380.621 105.095 375.74C105.095 370.858 81.6159 366.9 52.6536 366.9C23.6912 366.9 0.212624 370.858 0.212624 375.74C0.212624 380.621 23.6912 384.579 52.6536 384.579Z" fill="#63737A"/>
<path d="M90.0972 469.1C90.0972 469.1 88.8061 478.635 87.0183 481.515C85.1312 484.396 82.2509 491.547 82.3503 493.235C82.6482 496.314 92.1829 504.16 97.7449 508.928C103.307 513.695 107.876 513.894 118.205 514.688C128.534 515.483 132.705 513.894 132.705 510.715C132.705 507.636 130.62 506.047 126.051 500.783C121.582 495.519 114.331 488.07 111.948 483.8C109.564 479.529 114.331 473.073 116.516 469.1C118.701 465.128 94.6659 457.877 90.0972 469.1Z" fill="#22272E"/>
<path d="M116.516 469.1C114.431 473.073 109.663 479.529 111.948 483.8C112.146 484.197 112.444 484.594 112.643 484.992C112.047 484.197 109.961 481.615 105.889 481.615C101.122 481.615 98.5394 487.177 94.8646 484.495C92.4809 482.707 89.402 480.721 87.6142 479.628C89.0047 475.755 89.8986 469.001 89.8986 469.001C94.6659 457.877 118.701 465.128 116.516 469.1Z" fill="#F4C2C9"/>
<path d="M86.5217 306.911C86.5217 306.911 90.6931 317.041 92.7789 319.922C94.8646 322.802 146.014 327.768 151.477 348.526C156.94 369.284 124.561 456.884 121.085 465.128C117.609 473.371 117.112 480.621 105.392 479.43C93.5734 478.138 84.2373 470.689 86.5217 462.446C88.8061 454.202 97.7448 432.253 101.42 405.933C105.194 379.613 118.403 374.051 94.5666 366.006C70.7298 357.961 51.7597 360.544 58.3148 338.296C64.8699 316.048 81.953 304.527 86.5217 306.911Z" fill="#517ACA"/>
<path d="M123.469 483.601C123.469 483.601 127.64 498.499 127.64 500.088C127.64 501.777 124.959 514.49 125.554 518.264C126.15 522.038 131.315 524.124 138.168 530.381C145.518 537.234 151.477 536.837 160.515 536.141C168.262 535.545 178.591 531.771 179.684 528.692C180.876 525.514 179.584 523.428 173.427 520.151C167.964 517.171 154.258 501.975 153.563 500.287C152.867 498.598 148.696 476.45 148.497 474.364C148.299 472.179 120.986 477.94 123.469 483.601Z" fill="#22272E"/>
<path d="M152.867 498.201C150.782 495.619 147.802 493.434 143.829 495.817C139.658 498.3 139.261 503.664 137.076 503.962C134.891 504.26 134.692 501.181 131.812 500.287C128.931 499.492 127.144 497.506 127.144 497.506C126.051 492.838 123.469 483.502 123.469 483.502C120.986 477.841 148.299 472.08 148.398 474.265C148.597 476.152 151.576 492.242 152.867 498.201Z" fill="#F4C2C9"/>
<path d="M159.522 509.027C159.522 509.027 154.357 507.041 144.227 512.106" stroke="white" stroke-width="1.78776" stroke-miterlimit="10" stroke-linecap="round" stroke-linejoin="round"/>
<path d="M166.673 515.383C166.673 515.383 159.025 513.397 148.895 518.462" stroke="white" stroke-width="1.78776" stroke-miterlimit="10" stroke-linecap="round" stroke-linejoin="round"/>
<path d="M16.6004 305.322C16.6004 305.322 11.8331 317.836 8.95278 325.682C6.0725 333.529 2.39765 349.618 10.6412 362.629C18.8848 375.64 34.776 377.925 60.3012 381.103C85.5285 384.182 90.9911 386.168 90.9911 386.168C90.9911 386.168 96.7516 411.892 106.088 437.119C115.424 462.347 118.9 477.046 119.297 480.621C119.695 484.098 121.582 487.673 127.839 489.163C134.096 490.653 150.384 487.077 151.477 479.827C152.47 472.577 145.518 450.428 140.949 421.029C136.38 391.631 134.295 366.999 125.654 355.578C116.914 344.156 82.9462 342.964 82.9462 339.686C82.8468 336.508 33.1869 297.376 16.6004 305.322Z" fill="#517ACA"/>
<path d="M140.85 421.029C136.281 391.631 134.195 366.999 125.554 355.578C116.814 344.156 84.5353 340.978 82.8469 339.686C82.8469 339.686 74.9013 334.224 63.8767 334.323" stroke="#22272E" stroke-width="1.78776" stroke-miterlimit="10" stroke-linecap="round" stroke-linejoin="round"/>
<path d="M82.8469 339.686C82.8469 339.686 83.6414 334.522 82.8469 332.138" stroke="#22272E" stroke-width="1.78776" stroke-miterlimit="10" stroke-linecap="round" stroke-linejoin="round"/>
<path d="M10.6412 343.56C10.6412 343.56 27.2277 343.262 30.9025 325.186" stroke="#22272E" stroke-width="1.78776" stroke-miterlimit="10" stroke-linecap="round" stroke-linejoin="round"/>
<path d="M90.8918 386.168C90.8918 386.168 90.6931 381.599 94.6659 378.123" stroke="#22272E" stroke-width="1.78776" stroke-miterlimit="10" stroke-linecap="round" stroke-linejoin="round"/>
<path d="M125.058 499.492C125.058 499.492 122.972 493.831 106.286 498.4" stroke="white" stroke-width="1.78776" stroke-miterlimit="10" stroke-linecap="round" stroke-linejoin="round"/>
<path d="M116.715 490.553C116.715 490.553 115.126 486.382 101.817 492.043" stroke="white" stroke-width="1.78776" stroke-miterlimit="10" stroke-linecap="round" stroke-linejoin="round"/>
<path d="M521.047 126.546L387.362 121.083C384.482 120.984 382.495 118.302 382.893 115.025L393.818 34.6747C394.215 31.4965 396.996 28.9141 399.876 28.7155L533.561 23.2529C537.236 23.0543 539.818 25.8352 539.421 29.4107L528.496 120.09C528.098 123.864 524.721 126.744 521.047 126.546Z" fill="#F8AB5D"/>
<path d="M518.762 124.857L385.078 119.395C382.197 119.295 380.211 116.614 380.608 113.336L391.533 32.9863C391.931 29.808 394.712 27.2257 397.592 27.0271L531.277 21.5645C534.951 21.3658 537.534 24.1468 537.136 27.7223L526.211 118.401C525.814 122.176 522.437 124.957 518.762 124.857Z" fill="#73C2C7"/>
<path d="M412.589 73.0122H447.947" stroke="#F8AB5D" stroke-width="1.78776" stroke-miterlimit="10" stroke-linecap="round" stroke-linejoin="round"/>
<path d="M444.173 102.113L425.104 101.616C422.124 101.517 420.137 98.9347 420.535 95.8558L426.593 50.2679C426.991 47.189 429.672 44.6067 432.652 44.5073L451.721 44.0107" stroke="#F8AB5D" stroke-width="1.78776" stroke-miterlimit="10" stroke-linecap="round" stroke-linejoin="round"/>
<path d="M472.578 49.2747L450.43 49.672C449.139 49.672 448.344 48.6788 448.444 47.3876L449.338 40.7332C449.536 39.442 450.629 38.3495 451.92 38.3495L474.068 37.6543C475.359 37.6543 476.253 38.6475 476.154 39.9386L475.26 46.6924C475.061 48.1822 473.87 49.2747 472.578 49.2747Z" fill="#517ACA"/>
<path d="M510.717 78.9714L486.98 78.8721C485.689 78.8721 484.696 77.7795 484.894 76.3891L485.788 69.4367C485.987 68.0462 487.178 66.9537 488.47 66.9537L512.207 66.8543C513.598 66.8543 514.591 67.9469 514.392 69.3373L513.498 76.3891C513.399 77.8789 512.108 78.9714 510.717 78.9714Z" fill="#517ACA"/>
<path d="M465.129 108.469L442.981 107.874C441.69 107.874 440.895 106.781 440.995 105.49L441.889 98.7361C442.087 97.4449 443.18 96.3524 444.471 96.4517L466.619 96.849C467.91 96.849 468.804 97.9415 468.705 99.332L467.811 106.185C467.612 107.476 466.421 108.469 465.129 108.469Z" fill="#517ACA"/>
<path d="M471.983 72.9129H485.391" stroke="#F8AB5D" stroke-width="1.78776" stroke-miterlimit="10" stroke-linecap="round" stroke-linejoin="round"/>
<path d="M468.904 78.7727L446.755 78.6734C445.464 78.6734 444.67 77.5809 444.769 76.2897L445.663 69.6353C445.861 68.3442 446.954 67.2516 448.245 67.2516L470.393 67.1523C471.685 67.1523 472.578 68.2448 472.479 69.536L471.585 76.3891C471.387 77.6802 470.195 78.7727 468.904 78.7727Z" fill="#F4C2C9"/>
<path d="M412.589 73.0122C413.086 69.3373 410.702 66.4571 407.325 66.4571C403.948 66.4571 400.869 69.4367 400.373 73.0122C399.876 76.5877 402.161 79.5673 405.537 79.5673C408.914 79.5673 412.093 76.687 412.589 73.0122Z" fill="#517ACA"/>
<path d="M507.936 368.191V374.945C507.936 379.315 485.987 382.891 458.773 382.891C431.659 382.891 409.61 379.315 409.61 374.945V368.191H432.751C440.3 367.397 449.238 366.999 458.773 366.999C468.308 366.999 477.247 367.397 484.795 368.191H507.936Z" fill="#22272E"/>
<path d="M458.773 376.137C485.925 376.137 507.936 372.579 507.936 368.191C507.936 363.803 485.925 360.246 458.773 360.246C431.621 360.246 409.61 363.803 409.61 368.191C409.61 372.579 431.621 376.137 458.773 376.137Z" fill="#63737A"/>
<path d="M458.773 456.387C457.482 456.387 456.489 455.394 456.489 454.103V376.236H461.157V454.103C461.157 455.394 460.064 456.387 458.773 456.387Z" fill="#22272E"/>
<path d="M458.773 453.904C458.773 453.904 431.758 455.891 423.216 473.868" stroke="#22272E" stroke-width="3.9728" stroke-miterlimit="10" stroke-linecap="round" stroke-linejoin="round"/>
<path d="M494.429 473.868C485.788 455.891 458.872 453.904 458.872 453.904C458.872 453.904 454.403 457.381 452.516 477.94" stroke="#22272E" stroke-width="3.9728" stroke-miterlimit="10" stroke-linecap="round" stroke-linejoin="round"/>
<path d="M454.077 487.223C457.974 486.302 460.387 482.397 459.467 478.5C458.547 474.603 454.642 472.19 450.745 473.11C446.848 474.031 444.435 477.936 445.355 481.833C446.275 485.73 450.18 488.143 454.077 487.223Z" fill="#517ACA"/>
<path d="M499.51 480.465C502.341 477.634 502.341 473.043 499.51 470.212C496.679 467.381 492.088 467.381 489.257 470.212C486.425 473.043 486.425 477.634 489.257 480.465C492.088 483.297 496.679 483.297 499.51 480.465Z" fill="#517ACA"/>
<path d="M424.874 482.357C428.771 481.437 431.184 477.532 430.264 473.635C429.343 469.738 425.438 467.325 421.541 468.245C417.644 469.165 415.231 473.07 416.152 476.967C417.072 480.864 420.977 483.277 424.874 482.357Z" stroke="#22272E" stroke-width="1.78776" stroke-miterlimit="10" stroke-linecap="round" stroke-linejoin="round"/>
<path d="M485.589 294.992C490.357 306.414 498.799 324.788 498.7 345.447C498.7 370.476 468.407 380.706 465.328 384.678C462.249 388.75 399.181 393.021 392.725 380.408C386.269 367.695 386.667 354.485 403.948 322.603C415.47 301.25 413.98 295.29 414.079 294.992C414.079 294.992 415.668 296.681 416.363 290.026C417.059 283.372 482.709 288.239 485.589 294.992Z" fill="#22272E"/>
<path d="M407.723 354.485C401.565 355.478 391.235 358.756 390.143 375.144C389.15 391.531 402.161 455.096 402.359 466.319C402.558 477.543 401.465 478.039 393.818 484.892C386.17 491.745 370.974 499.194 372.265 504.458C373.556 509.722 390.937 514.192 402.359 512.106C413.88 510.02 416.363 497.009 418.548 495.917C420.733 494.824 422.124 490.752 422.422 488.17C422.72 485.488 430.765 394.412 431.559 381.004C432.652 364.417 425.799 351.605 407.723 354.485Z" fill="#F4C2C9"/>
<path d="M423.216 480.423C422.819 484.793 422.521 487.574 422.521 488.07C422.223 490.752 420.833 494.725 418.648 495.817C416.463 496.91 413.98 509.921 402.459 512.007C390.937 514.092 373.556 509.623 372.365 504.359C371.371 500.287 380.41 494.824 388.057 489.362C387.859 489.56 385.673 491.745 388.057 492.242C390.54 492.738 395.01 490.851 403.551 495.619C412.093 500.386 414.576 492.937 416.264 487.872C417.754 483.601 420.733 484.991 423.216 480.423Z" fill="#22272E"/>
<path d="M437.717 357.465C430.268 362.431 427.289 368.489 425.898 391.333C424.011 422.718 420.634 472.08 419.045 477.344C417.456 482.608 415.469 484.992 413.582 490.255C411.695 495.519 395.705 510.715 396.698 516.476C397.592 522.237 406.829 527.997 412.589 529.884C418.35 531.771 425.203 532.566 429.374 529.884C433.546 527.203 435.631 510.417 436.724 506.445C437.817 502.373 439.008 499.492 440.002 492.441C440.895 485.488 448.245 453.606 451.324 444.469C454.403 435.431 468.208 390.936 468.606 373.555C468.804 356.174 448.642 350.314 437.717 357.465Z" fill="#F4C2C9"/>
<path d="M437.717 357.465C430.268 362.431 427.289 368.489 425.898 391.333C424.011 422.718 420.634 472.08 419.045 477.344C417.456 482.608 415.469 484.992 413.582 490.255" stroke="#E26E85" stroke-width="1.78776" stroke-miterlimit="10" stroke-linecap="round" stroke-linejoin="round"/>
<path d="M441.094 486.183C440.498 488.964 440.101 491.149 440.002 492.441C439.108 499.393 437.817 502.373 436.724 506.445C435.631 510.517 433.645 527.302 429.474 529.884C425.302 532.566 418.449 531.771 412.689 529.884C406.928 527.997 397.791 522.237 396.797 516.575C396.102 512.404 404.246 503.366 409.51 496.612C409.212 497.009 405.438 502.67 412.192 507.636C418.052 512.007 428.977 514.688 431.758 508.133C434.539 501.578 436.029 495.42 437.32 493.434C438.611 491.547 440.2 489.461 441.094 486.183Z" fill="#22272E"/>
<path d="M421.274 511.117C422.049 509.006 420.382 506.451 417.55 505.411C414.718 504.371 411.794 505.239 411.018 507.35C410.243 509.461 411.91 512.016 414.742 513.056C417.574 514.096 420.498 513.228 421.274 511.117Z" fill="white"/>
<path d="M399.181 494.228C398.883 496.314 396.301 497.605 393.52 497.208C390.739 496.811 388.653 494.725 388.951 492.639C389.249 490.553 391.831 489.262 394.612 489.66C397.493 490.057 399.479 492.143 399.181 494.228Z" fill="white"/>
<path d="M416.463 211.961C416.463 211.961 402.955 212.16 393.818 232.321C384.68 252.384 370.18 280.889 372.265 292.907C374.351 304.924 402.061 292.907 415.172 270.361C428.182 247.815 426.991 212.557 416.463 211.961Z" fill="#517ACA"/>
<path d="M426.891 171.836C426.891 171.836 420.038 171.438 417.853 162.599C415.668 153.759 424.706 142.735 433.049 140.053C441.392 137.372 443.478 142.536 448.94 143.132C454.403 143.728 469.003 142.139 474.863 155.15C480.723 168.161 470.989 180.476 478.438 190.21C485.887 200.042 492.144 218.019 470.195 225.766C448.245 233.513 423.018 227.455 415.172 213.451C407.425 199.447 422.422 191.203 424.706 183.953C427.189 176.802 428.282 175.014 426.891 171.836Z" fill="#22272E"/>
<path d="M449.139 206.796C449.139 206.796 428.878 206.598 417.853 210.769C414.576 211.961 411.795 214.047 411 224.376C410.305 233.712 409.808 233.613 407.226 238.181C403.154 245.531 401.465 253.973 409.312 267.679C414.377 276.618 412.788 293.403 411.993 301.845C411.199 310.387 412.192 314.062 428.58 318.233C444.968 322.405 480.127 318.233 484.1 314.26C488.072 310.288 489.86 270.957 489.066 263.309C488.271 255.662 502.97 235.301 501.878 227.256C500.885 219.211 491.251 208.187 449.139 206.796Z" fill="#73C2C7"/>
<path d="M438.015 205.108C438.015 205.108 428.878 205.505 425.898 208.584C423.812 210.769 425.501 212.16 427.984 214.047C429.672 215.338 423.713 218.715 426.792 222.588C429.076 225.468 434.241 221.893 436.227 224.575C438.512 227.753 438.909 228.945 442.385 229.044C446.755 229.143 447.153 224.475 450.43 224.972C454.403 225.568 455.297 226.958 458.177 226.66C462.647 226.164 462.746 221.694 462.15 219.013C461.554 216.331 463.143 216.232 466.619 215.238C470.096 214.245 470.791 207.491 457.978 205.604C445.266 203.717 438.015 205.108 438.015 205.108Z" fill="white"/>
<path d="M460.66 187.131C460.66 187.131 458.574 197.162 458.773 207.889C458.773 207.889 455.297 218.317 443.378 217.622C432.255 217.026 434.837 208.087 434.837 208.087C434.837 208.087 437.518 198.155 437.618 195.573C437.816 192.991 457.879 184.449 460.66 187.131Z" fill="#F4C2C9"/>
<path d="M451.821 198.453C447.053 201.632 441.491 203.519 436.227 203.121C435.532 205.803 434.936 208.087 434.936 208.087C434.936 208.087 434.837 208.584 434.738 209.379C442.485 209.18 449.437 205.704 451.821 198.453Z" fill="#E26E85"/>
<path d="M425.6 161.904C425.6 162.202 425.898 169.849 424.508 178.391C423.117 186.932 424.607 200.44 433.844 203.618C446.656 207.988 459.965 199.248 463.242 186.535C466.52 173.822 468.208 158.229 451.92 153.561C435.532 148.793 426.494 155.646 425.6 161.904Z" fill="#F4C2C9"/>
<path d="M425.104 165.479C425.104 165.479 424.408 162.4 427.289 161.804C430.169 161.208 432.85 159.917 435.532 158.725C437.419 157.832 439.803 158.129 441.69 162.301C445.861 171.24 451.125 184.648 462.051 180.874C462.051 180.874 466.222 181.768 467.414 174.815C468.606 167.863 468.109 158.527 455.992 152.865C443.875 147.304 429.97 151.078 427.388 153.958C423.415 158.427 425.104 165.479 425.104 165.479Z" fill="#22272E"/>
<path d="M457.383 182.264C457.383 182.264 461.852 176.106 466.023 179.682C470.195 183.257 464.434 192.296 458.674 191.998" fill="#F4C2C9"/>
<path d="M463.838 192.693C463.838 191.302 462.646 188.72 461.256 188.72C459.865 188.72 458.674 191.302 458.674 192.693C458.674 194.083 459.865 195.275 461.256 195.275C462.646 195.275 463.838 194.183 463.838 192.693Z" fill="#73C2C7"/>
<path d="M464.534 183.853C464.136 183.655 463.838 183.357 463.54 183.257C463.242 183.059 462.944 183.158 462.845 183.257C462.746 183.257 462.746 183.357 462.646 183.456C462.547 183.555 462.448 183.655 462.448 183.754C462.349 183.953 462.348 184.151 462.249 184.449C462.15 185.045 462.249 185.84 462.051 186.734C461.951 187.23 461.653 187.727 461.157 188.025C460.66 188.323 460.163 188.124 459.766 188.025C460.163 187.826 460.461 187.627 460.561 187.33C460.66 187.131 460.66 186.833 460.66 186.535C460.66 185.939 460.461 185.144 460.561 184.251C460.561 183.754 460.759 183.257 461.157 182.761C461.355 182.562 461.554 182.364 461.753 182.165C462.051 182.066 462.349 181.867 462.646 181.867C463.342 181.867 463.838 182.264 464.037 182.661C464.434 183.059 464.534 183.456 464.534 183.853Z" fill="#22272E"/>
<path d="M428.977 177.795C429.374 178.689 429.374 179.682 429.176 180.675C428.977 181.668 428.58 182.562 427.884 183.357C427.686 183.655 427.587 183.655 427.587 183.953C427.587 184.151 427.686 184.449 427.884 184.847C428.083 185.144 428.282 185.542 428.58 185.84C428.878 186.138 429.176 186.535 429.573 186.634C429.076 186.833 428.58 186.734 428.083 186.535C427.587 186.336 427.189 186.038 426.792 185.74C426.395 185.343 426.097 184.847 425.997 184.151C425.997 183.953 425.997 183.853 425.997 183.655C425.997 183.456 426.097 183.257 426.097 183.158C426.196 182.959 426.196 182.86 426.295 182.661C426.395 182.562 426.494 182.364 426.593 182.264C427.587 181.072 428.282 179.583 428.977 177.795Z" fill="#22272E"/>
<path d="M433.446 191.898C433.446 191.898 437.121 192.395 439.803 190.11" stroke="#22272E" stroke-width="1.78776" stroke-miterlimit="10" stroke-linecap="round" stroke-linejoin="round"/>
<path d="M437.717 170.246C437.519 169.651 437.816 168.757 438.114 168.359C438.909 167.366 441.491 167.267 443.478 168.558C445.464 169.75 446.259 171.637 445.663 171.836C444.769 172.134 443.875 170.942 441.789 170.743C439.704 170.445 438.114 171.339 437.717 170.246Z" fill="#22272E"/>
<path d="M427.487 169.949C427.984 170.048 428.48 169.75 428.48 169.253C428.58 168.558 428.58 167.763 428.282 167.267C427.686 166.373 426.097 167.366 425.6 168.061C425.104 168.757 425.302 169.949 425.6 169.949C425.799 169.949 426.693 169.75 427.487 169.949Z" fill="#22272E"/>
<path d="M439.704 179.583C440.498 179.682 441.094 179.086 441.193 178.291L441.293 177.497C441.392 176.702 440.796 176.106 440.002 176.007C439.207 175.908 438.611 176.504 438.512 177.298L438.412 178.093C438.412 178.887 438.909 179.583 439.704 179.583Z" fill="#22272E"/>
<path d="M426.891 178.589C427.686 178.689 428.282 178.093 428.381 177.298L428.48 176.504C428.58 175.709 427.984 175.113 427.189 175.014C426.395 174.915 425.799 175.51 425.699 176.305L425.6 177.1C425.6 177.894 426.196 178.49 426.891 178.589Z" fill="#22272E"/>
<path d="M291.22 333.231L296.981 467.908C297.08 469.398 295.988 470.689 294.597 470.689C293.405 470.689 292.313 469.597 292.213 468.206L282.182 333.131H291.22V333.231Z" fill="#B8D8C7"/>
<path d="M303.635 317.439L309.098 445.561C309.197 447.051 308.105 448.243 306.813 448.243C305.622 448.243 304.628 447.25 304.529 445.959L294.994 317.439H303.635V317.439Z" fill="#B8D8C7"/>
<path d="M200.938 333.33L182.862 466.915C182.663 468.405 183.657 469.796 184.948 469.895C186.14 469.994 187.331 469.001 187.53 467.71L209.877 334.124L200.938 333.33Z" fill="#B8D8C7"/>
<path d="M321.513 190.408C321.513 190.408 327.373 193.09 322.307 216.629C317.242 240.168 307.906 271.354 309.197 306.613C310.389 341.871 287.347 356.471 249.506 353.79C211.665 351.108 271.058 244.24 271.058 244.24C271.058 244.24 313.667 180.774 321.513 190.408Z" fill="#B8D8C7"/>
<path d="M220.008 197.559C221.001 193.189 223.087 186.138 230.933 183.257C238.779 180.377 321.215 181.768 322.307 191.998C323.301 202.128 301.847 249.901 301.947 284.067C302.046 318.134 308.105 346.539 267.88 352.201C227.655 357.862 184.551 349.519 188.921 335.813C193.291 322.206 206.6 303.733 210.672 266.09C214.744 228.448 216.333 214.444 220.008 197.559Z" fill="white"/>
<path d="M201.336 306.911C201.336 306.911 171.043 344.851 170.149 357.465C169.255 370.078 219.908 369.582 220.008 366.999C220.206 364.417 228.549 349.718 232.522 349.42C235.104 349.221 239.077 349.022 239.772 352.201C240.766 356.67 239.772 366.006 239.772 366.006L283.374 386.466L287.645 368.291C287.645 368.291 294.994 356.471 294.994 337.005C294.994 317.538 289.333 288.835 289.333 288.835C289.333 288.835 206.302 297.575 201.336 306.911Z" fill="#22272E"/>
<path d="M237.091 489.858C237.091 489.858 234.409 491.646 233.813 496.115C233.217 500.585 230.834 507.239 229.245 512.702C227.655 518.164 222.987 528.792 225.371 530.579C228.748 533.261 237.687 535.148 248.016 536.042C258.345 536.936 263.311 536.34 264.9 533.36C266.39 530.381 263.113 513.298 262.517 506.842C261.921 500.386 262.517 493.632 261.325 491.348C260.133 489.163 241.858 483.7 237.091 489.858Z" fill="#22272E"/>
<path d="M200.442 484.098C200.442 484.098 199.25 485.985 198.058 489.958C196.866 493.831 186.338 510.119 186.438 515.284C186.636 520.548 196.568 520.548 200.442 520.747C205.11 520.945 216.929 520.051 220.802 517.37C224.676 514.688 224.775 505.451 225.073 502.472C225.669 496.513 225.57 492.937 224.179 483.998C223.782 481.118 219.412 480.323 217.028 482.012C214.644 483.601 202.229 480.224 200.442 484.098Z" fill="#22272E"/>
<path d="M238.68 478.039C238.68 478.039 236.892 491.05 236.693 492.639C236.495 494.129 239.375 497.704 247.718 499.492C254.869 501.081 259.14 498.4 259.835 497.407C260.53 496.413 263.808 479.827 264.9 476.053C265.993 472.378 240.964 473.57 238.68 478.039Z" fill="#F4C2C9"/>
<path d="M198.058 475.258C198.058 475.258 200.74 484.396 200.74 485.587C200.74 486.779 205.308 489.262 211.665 489.064C217.922 488.865 223.385 485.389 223.385 483.7C223.385 482.012 221.498 465.823 221.498 465.823C221.498 465.823 198.654 470.689 198.058 475.258Z" fill="#F4C2C9"/>
<path d="M235.005 513C235.005 513 247.221 508.928 258.743 518.462" stroke="white" stroke-width="1.78776" stroke-miterlimit="10" stroke-linecap="round" stroke-linejoin="round"/>
<path d="M238.183 505.749C238.183 505.749 250.201 503.564 257.849 509.822" stroke="white" stroke-width="1.78776" stroke-miterlimit="10" stroke-linecap="round" stroke-linejoin="round"/>
<path d="M237.19 495.122C237.19 495.122 239.177 496.314 241.461 495.122C243.745 493.93 246.129 491.745 250.797 492.639C256.458 493.732 257.551 499.592 260.63 497.009C260.63 497.009 260.729 500.982 252.982 501.379C245.235 501.777 237.289 496.413 237.19 495.122Z" fill="#22272E"/>
<path d="M200.342 485.786C200.342 485.786 201.435 486.978 203.223 485.289C205.01 483.7 204.812 481.714 209.678 481.019C212.857 480.621 215.538 482.906 217.922 484.793C220.306 486.68 222.689 484.098 223.186 481.913C223.186 481.913 224.775 487.574 222.59 490.355C221.001 492.441 214.843 490.951 211.168 491.05C207.593 491.149 199.548 489.362 199.548 489.362L200.342 485.786Z" fill="#22272E"/>
<path d="M193.589 500.386C193.589 500.386 202.925 494.626 215.737 502.373" stroke="white" stroke-width="1.78776" stroke-miterlimit="10" stroke-linecap="round" stroke-linejoin="round"/>
<path d="M198.058 494.427C198.058 494.427 206.202 488.666 217.425 496.413" stroke="white" stroke-width="1.78776" stroke-miterlimit="10" stroke-linecap="round" stroke-linejoin="round"/>
<path d="M251.492 346.44C251.492 346.44 239.474 348.129 238.68 378.123C237.885 408.118 235.402 456.288 232.025 463.042C228.748 469.796 229.84 477.741 236.098 480.919C242.355 484.098 249.605 487.772 258.743 486.779C267.88 485.885 272.25 480.522 272.25 469.895C272.25 459.168 276.124 429.472 282.083 405.238C287.943 381.004 292.015 357.067 279.898 348.427C267.781 339.786 251.492 346.44 251.492 346.44Z" fill="#22272E"/>
<path d="M180.28 344.056C180.28 344.056 162.204 346.341 172.433 391.134C182.663 435.828 189.517 459.466 187.927 466.319C186.338 473.172 191.304 476.847 196.966 478.138C202.527 479.43 213.453 479.231 219.61 475.755C225.868 472.279 226.464 466.717 223.981 456.089C221.498 445.462 220.902 402.953 220.604 388.353C220.306 373.753 223.981 348.923 206.302 341.772C188.523 334.522 180.28 344.056 180.28 344.056Z" fill="#22272E"/>
<path d="M191.602 373.654C199.556 373.654 206.004 367.295 206.004 359.451C206.004 351.607 199.556 345.248 191.602 345.248C183.649 345.248 177.201 351.607 177.201 359.451C177.201 367.295 183.649 373.654 191.602 373.654Z" stroke="#63737A" stroke-width="1.78776" stroke-miterlimit="10" stroke-linecap="round" stroke-linejoin="round"/>
<path d="M262.815 384.579C270.768 384.579 277.216 378.22 277.216 370.376C277.216 362.532 270.768 356.174 262.815 356.174C254.861 356.174 248.413 362.532 248.413 370.376C248.413 378.22 254.861 384.579 262.815 384.579Z" stroke="#63737A" stroke-width="1.78776" stroke-miterlimit="10" stroke-linecap="round" stroke-linejoin="round"/>
<path d="M295.988 158.825C295.988 158.825 301.847 156.938 303.734 152.667C305.721 148.396 305.423 135.484 301.947 131.412C298.471 127.34 288.737 129.128 282.579 127.34C276.422 125.552 272.151 121.58 260.729 123.765C249.307 125.95 238.779 136.18 238.283 141.742C237.786 147.304 241.064 149.588 239.872 153.163C238.581 156.64 237.091 160.215 242.653 165.678C248.215 171.14 246.03 174.716 250.201 174.716C254.372 174.716 246.824 162.003 252.187 151.078C257.65 140.252 293.008 146.509 295.988 158.825Z" fill="#22272E"/>
<path d="M180.578 224.575C180.578 224.575 167.467 241.856 165.183 254.867C162.899 267.878 169.95 276.32 178.691 277.711C187.431 279.101 216.73 240.863 218.121 233.116C219.412 225.369 184.749 218.516 180.578 224.575Z" fill="#F4C2C9"/>
<path d="M222.391 190.806C222.391 190.806 215.737 188.919 199.746 202.724C186.338 214.245 175.711 225.27 175.711 225.27C175.711 225.27 203.918 250.894 207.791 257.549C207.791 257.549 225.172 237.486 226.662 217.225C228.152 196.864 224.874 190.011 222.391 190.806Z" fill="#63737A"/>
<path d="M180.578 220.701C180.578 220.701 200.938 237.089 211.963 252.185" stroke="#22272E" stroke-width="1.78776" stroke-miterlimit="10" stroke-linecap="round" stroke-linejoin="round"/>
<path d="M214.545 199.248C217.028 193.686 221.994 189.614 228.152 189.415C234.111 189.217 243.149 189.316 256.26 190.21C284.466 192.196 306.217 200.241 311.978 204.413C317.739 208.584 310.687 234.407 304.728 248.709C298.768 263.011 292.313 276.022 291.22 280.988C290.227 285.954 294.1 309.394 292.015 314.161C289.929 318.929 267.781 327.172 239.574 325.583C211.367 323.895 199.647 314.856 198.753 311.48C197.959 308.202 201.435 278.803 203.123 268.772C204.812 258.741 206.004 236.692 206.202 233.513C207.99 213.053 211.963 205.008 214.545 199.248Z" fill="#22272E"/>
<path d="M337.702 245.432C330.65 233.315 306.217 257.449 306.813 262.813C306.813 262.813 311.183 271.95 311.183 272.943C311.183 273.937 306.813 299.065 303.834 313.168C302.94 317.538 300.258 322.405 296.981 327.073C304.728 329.953 312.574 332.337 320.619 333.926C331.147 315.552 343.264 287.444 345.151 280.492C348.627 267.481 344.754 257.549 337.702 245.432Z" fill="#F4C2C9"/>
<path d="M311.184 272.943C311.184 272.943 312.971 268.673 317.54 266.786" stroke="#E26E85" stroke-width="1.78776" stroke-miterlimit="10" stroke-linecap="round" stroke-linejoin="round"/>
<path d="M311.978 204.313C311.978 204.313 320.023 208.783 327.969 222.191C335.815 235.599 342.072 247.815 342.072 247.815L307.111 266.09C307.111 266.09 296.981 249.504 292.809 242.055C288.638 234.606 288.241 219.311 294.1 210.769C299.762 202.327 309.197 202.426 311.978 204.313Z" fill="#63737A"/>
<path d="M303.834 260.826C303.834 260.826 324.194 247.418 339.192 242.452" stroke="#22272E" stroke-width="1.78776" stroke-miterlimit="10" stroke-linecap="round" stroke-linejoin="round"/>
<path d="M301.847 318.73C301.847 318.73 287.843 320.12 284.665 321.908C281.586 323.696 276.719 334.522 277.117 335.515C277.415 336.508 280.494 335.515 280.494 335.515C280.494 335.515 280.096 337.601 282.48 337.601C284.864 337.601 285.261 336.607 285.261 336.607C285.261 336.607 284.864 339.19 287.645 339.09C290.426 338.892 296.186 333.926 296.186 333.926C296.186 333.926 293.107 339.388 294.994 340.68C296.782 341.971 300.954 337.402 301.549 336.508C302.145 335.614 317.937 345.149 323.996 327.569C323.996 327.569 312.574 315.154 301.847 318.73Z" fill="#F4C2C9"/>
<path d="M242.951 188.819C242.951 188.819 238.183 189.316 237.19 190.21C236.197 191.104 233.217 198.851 237.19 206.896C241.163 214.841 252.684 218.913 264.404 215.238C276.124 211.663 281.09 200.34 280.692 196.864C280.295 193.388 278.209 192.296 273.938 191.203C269.668 190.11 242.951 188.819 242.951 188.819Z" fill="#63737A"/>
<path d="M248.612 163.89C248.612 163.89 248.91 173.027 246.626 180.476C245.632 183.853 244.043 186.932 243.05 188.72C242.255 190.21 241.659 191.799 241.461 193.388C240.865 197.46 241.163 204.512 248.612 207.889C260.53 213.252 273.045 203.419 274.733 195.573C274.733 195.573 275.428 187.429 277.216 184.151C279.004 180.973 254.372 160.811 248.612 163.89Z" fill="#F4C2C9"/>
<path d="M273.939 197.857C274.336 197.063 274.534 196.268 274.733 195.573C274.733 195.573 274.832 193.984 275.23 191.898C266.986 190.508 259.736 185.74 255.266 179.285C255.862 189.018 264.205 196.467 273.939 197.857Z" fill="#E26E85"/>
<path d="M173.824 276.122C173.824 276.122 178.691 281.584 200.342 276.122C221.895 270.659 249.903 255.562 254.074 254.073C258.246 252.483 259.835 253.278 264.304 253.278C274.932 253.477 279.302 252.483 280.692 251.788C283.473 250.398 284.764 248.312 284.268 246.524C283.771 244.736 285.261 244.24 285.559 242.651C286.056 239.671 284.963 239.274 285.261 239.075C285.559 238.877 288.539 237.983 289.134 237.188C290.624 234.904 289.432 233.414 289.432 233.414C289.432 233.414 293.207 232.421 297.676 232.024C302.145 231.626 304.827 230.037 303.536 228.448C302.245 226.859 293.505 227.355 287.843 227.355C282.182 227.355 280.196 227.455 279.798 227.256C277.613 226.561 273.343 225.27 271.257 225.468C269.171 225.667 266.787 227.355 262.715 229.541C258.643 231.726 254.074 233.513 248.115 235.003C243.547 236.195 212.857 238.579 193.887 242.154C191.205 242.651 188.722 243.147 186.636 243.743C184.054 244.439 181.968 245.134 180.578 245.829C170.248 251.391 161.21 265.991 173.824 276.122Z" fill="#F4C2C9"/>
<path d="M289.333 233.414C289.333 233.414 286.751 233.017 285.857 232.818C284.864 232.619 283.473 232.619 283.473 232.619" stroke="#E26E85" stroke-width="1.78776" stroke-miterlimit="10" stroke-linecap="round" stroke-linejoin="round"/>
<path d="M285.261 239.075C285.261 239.075 283.473 239.572 282.778 239.87" stroke="#E26E85" stroke-width="1.78776" stroke-miterlimit="10" stroke-linecap="round" stroke-linejoin="round"/>
<path d="M284.268 245.432C284.268 245.432 282.381 246.524 281.586 246.822" stroke="#E26E85" stroke-width="1.78776" stroke-miterlimit="10" stroke-linecap="round" stroke-linejoin="round"/>
<path d="M254.075 254.073C246.427 245.034 250.3 234.407 250.3 234.407L241.759 235.996C236.892 248.014 245.533 258.145 245.533 258.145L254.075 254.073Z" fill="#22272E"/>
<path d="M279.699 227.256C279.699 227.256 274.336 227.355 273.442 227.753" stroke="#E26E85" stroke-width="1.78776" stroke-miterlimit="10" stroke-linecap="round" stroke-linejoin="round"/>
<path d="M193.887 242.154C191.205 242.651 188.722 243.147 186.636 243.743C184.054 244.439 181.968 245.134 180.578 245.829" stroke="#E26E85" stroke-width="1.78776" stroke-miterlimit="10" stroke-linecap="round" stroke-linejoin="round"/>
<path d="M250.102 245.432C250.102 242.551 247.817 240.267 244.937 240.267C242.057 240.267 239.772 242.551 239.772 245.432C239.772 248.312 242.057 250.596 244.937 250.596C247.718 250.497 250.102 248.213 250.102 245.432Z" fill="white"/>
<path d="M297.179 141.94C297.179 141.94 299.364 148.495 296.286 158.229C293.207 168.061 291.121 171.637 288.539 179.384C285.857 187.131 279.699 193.885 269.072 192.792C257.948 191.6 249.208 181.47 248.711 168.856C248.215 156.242 247.122 136.577 262.119 133.101C276.918 129.724 294.597 138.563 297.179 141.94Z" fill="#F4C2C9"/>
<path d="M287.347 162.996C287.347 164.188 287.347 165.28 287.545 166.373C287.645 166.87 287.744 167.466 287.843 167.962C287.943 168.26 287.943 168.459 288.042 168.757L288.141 169.154L288.241 169.651C288.439 170.346 288.439 171.041 288.241 171.836C287.943 172.531 287.446 173.226 286.85 173.524C285.658 174.219 284.367 174.319 283.175 174.021C284.268 173.524 285.36 173.027 285.956 172.432C286.651 171.736 286.751 171.041 286.453 170.147L286.354 169.849L286.254 169.353C286.155 169.055 286.155 168.757 286.056 168.459C285.956 167.863 285.956 167.168 285.956 166.572C286.254 165.181 286.651 163.89 287.347 162.996Z" fill="#22272E"/>
<path d="M251.294 157.633C251.294 157.633 254.571 156.838 256.657 148.197C256.657 148.197 257.352 146.211 260.828 148.893C264.205 151.574 270.065 155.944 280.196 151.177C290.326 146.41 291.617 144.821 293.008 146.509C293.008 146.509 294.498 154.057 299.662 151.674C304.827 149.389 302.046 135.882 284.963 131.512C267.88 127.142 255.763 128.631 250.3 138.166C244.738 147.8 246.923 157.037 251.294 157.633Z" fill="#22272E"/>
<path d="M282.48 154.455C283.076 153.759 283.672 152.17 282.877 151.078C281.785 149.389 274.336 148.197 272.548 149.687C270.76 151.177 275.23 151.376 277.315 152.369C279.401 153.461 281.884 155.15 282.48 154.455Z" fill="#22272E"/>
<path d="M291.717 158.725C291.915 158.129 292.511 157.434 293.207 157.136C294.299 156.64 296.583 158.924 296.186 160.414C295.789 161.904 294.696 160.215 293.703 160.017C292.71 159.619 291.419 159.321 291.717 158.725Z" fill="#22272E"/>
<path d="M276.819 160.215C277.117 159.421 276.719 158.527 275.826 158.229C275.031 157.931 274.137 158.328 273.839 159.222L273.641 159.719L276.521 160.811L276.819 160.215Z" fill="#22272E"/>
<path d="M291.717 165.777C292.015 164.983 291.617 164.089 290.724 163.791C289.929 163.493 289.035 163.89 288.737 164.784L288.539 165.28L291.419 166.373L291.717 165.777Z" fill="#22272E"/>
<path d="M253.081 159.321C253.081 159.321 251.393 152.568 246.427 152.667C241.461 152.766 239.177 166.274 250.598 168.359" fill="#F4C2C9"/>
<path d="M245.632 158.825C245.632 158.328 245.732 157.931 246.129 157.434C246.328 157.236 246.626 157.037 247.023 157.037C247.321 157.037 247.718 157.136 247.917 157.236C248.016 157.236 248.215 157.434 248.314 157.534C248.513 157.633 248.513 157.831 248.612 157.931C248.711 158.129 248.711 158.229 248.811 158.328C248.811 158.427 248.91 158.626 248.91 158.725C249.009 159.222 249.009 159.619 249.009 160.017C249.009 160.811 249.009 161.606 249.009 162.301C249.009 162.599 249.109 162.897 249.307 163.195C249.506 163.493 249.804 163.691 250.201 163.89C249.804 164.089 249.307 164.089 248.811 163.89C248.314 163.691 247.917 163.195 247.718 162.698C247.321 161.804 247.221 160.91 247.221 160.017C247.221 159.222 247.122 158.328 247.122 158.328C246.923 158.129 246.824 158.03 246.526 158.03C246.328 158.229 246.03 158.527 245.632 158.825Z" fill="#22272E"/>
<path d="M276.521 180.476C276.918 179.881 277.315 179.285 277.514 178.788C277.911 177.894 277.514 176.901 276.62 176.603C275.627 176.206 274.336 175.51 272.846 174.319C269.767 171.836 268.377 174.021 268.575 176.802C271.555 177.1 274.236 178.987 276.521 180.476Z" fill="#22272E"/>
<path d="M268.575 176.702C268.774 179.086 270.065 181.966 272.647 182.364C274.336 182.661 275.627 181.668 276.521 180.476C274.236 178.987 271.555 177.1 268.575 176.702Z" fill="#E26E85"/>
<path d="M70.2332 341.176L55.6332 544.782C55.5339 546.471 56.9243 547.96 58.6128 547.96C60.2019 547.96 61.4931 546.769 61.5924 545.279L79.172 341.275H70.2332V341.176Z" fill="#B8D8C7"/>
<path d="M659.499 341.176L674.099 544.782C674.198 546.471 672.808 547.96 671.119 547.96C669.53 547.96 668.239 546.769 668.14 545.279L650.56 341.275H659.499V341.176Z" fill="#B8D8C7"/>
<path d="M690.586 336.905H39.1461L113.636 306.911H615.997L690.586 336.905Z" fill="white"/>
<path d="M690.685 336.905H39.1461V344.354H690.685V336.905Z" fill="#B8D8C7"/>
<path d="M298.173 301.945H339.986C341.079 301.945 342.171 302.243 343.165 302.938L381.105 328.265C382.396 329.059 381.8 331.046 380.31 331.046H319.824C318.434 331.046 317.143 330.45 316.249 329.258L296.981 304.428C296.186 303.435 296.881 301.945 298.173 301.945Z" fill="#73C2C7"/>
<path d="M323.996 323.199H363.029" stroke="#517ACA" stroke-width="1.78776" stroke-miterlimit="10" stroke-linecap="round" stroke-linejoin="round"/>
<path d="M352.203 315.75L344.058 309.592C343.661 309.294 343.264 309.195 342.867 309.195H332.239C331.842 309.195 331.743 309.592 331.941 309.89L338.099 315.85C338.496 316.247 338.993 316.445 339.49 316.445H352.004C352.401 316.445 352.501 316.048 352.203 315.75Z" fill="#22272E"/>
<path d="M330.154 316.445H319.427" stroke="#517ACA" stroke-width="1.78776" stroke-miterlimit="10" stroke-linecap="round" stroke-linejoin="round"/>
<path d="M326.677 312.373H317.043" stroke="#517ACA" stroke-width="1.78776" stroke-miterlimit="10" stroke-linecap="round" stroke-linejoin="round"/>
<path d="M539.619 335.118L527.701 336.012C526.708 336.111 525.615 336.012 524.622 335.714L470.195 320.816C469.003 320.518 468.109 319.326 468.109 318.035L560.675 315.75L539.619 335.118Z" fill="#63737A"/>
<path d="M526.311 331.741L549.353 270.46C550.147 268.275 552.332 266.786 554.617 266.885L649.169 268.673C651.255 268.673 652.745 270.858 651.851 272.844L630.001 326.378C629.206 328.364 627.319 329.655 625.233 329.854L529.29 335.912C527.204 335.912 525.615 333.727 526.311 331.741Z" fill="#22272E"/>
<path d="M529.687 335.912L527.701 336.012C526.708 336.111 525.615 336.012 524.622 335.714L470.195 320.816C469.003 320.418 468.109 319.326 468.109 318.035L527.8 332.337L529.687 335.912Z" fill="#22272E"/>
<path d="M606.263 299.958C605.171 303.733 601.297 306.811 597.523 306.811C593.749 306.811 591.564 303.733 592.656 299.958C593.749 296.184 597.622 293.105 601.396 293.105C605.171 293.006 607.356 296.184 606.263 299.958Z" fill="#63737A"/>
<path d="M72.9149 205.207C72.9149 205.207 82.6482 202.525 91.1897 217.821C99.7313 233.116 104.002 261.522 106.684 264.402C109.365 267.282 113.735 269.467 127.839 278.505C141.942 287.543 142.737 287.841 154.953 289.331C167.17 290.821 167.964 294.992 171.738 299.164C175.512 303.335 178.194 306.216 174.619 306.514C171.142 306.811 167.17 301.647 164.885 303.137C162.601 304.626 160.912 305.818 156.84 306.911C152.669 307.904 153.96 309.592 150.086 309.195C146.213 308.798 138.665 308.996 141.048 306.911C143.333 304.825 141.048 304.328 141.048 304.328C141.048 304.328 99.036 298.667 85.4292 287.643C71.723 276.618 68.2468 240.068 65.5652 227.951C62.7842 215.735 69.538 205.207 72.9149 205.207Z" fill="#FFE7CA"/>
<path d="M106.684 264.402C106.684 264.402 102.909 264.005 100.228 265.395" stroke="#F8AB5D" stroke-width="1.78776" stroke-miterlimit="10" stroke-linecap="round" stroke-linejoin="round"/>
<path d="M77.6822 156.838C77.6822 156.838 85.0319 149.886 82.1516 140.848C79.2713 131.71 70.3325 130.916 63.0822 133.101C55.8318 135.385 35.9678 131.611 28.7175 142.636C21.4671 153.66 26.0358 163.592 21.4671 166.472C16.8984 169.353 10.4426 171.438 11.5351 178.689C12.5283 185.939 31.995 196.467 26.0358 204.81C20.0766 213.053 14.4154 232.52 37.4576 243.545C60.4005 254.569 61.8903 228.249 63.3801 212.954C64.8699 197.659 60.3012 179.98 66.8563 173.425C73.5108 166.671 78.9734 162.996 77.6822 156.838Z" fill="#22272E"/>
<path d="M44.1121 201.632C44.1121 201.632 70.4318 202.228 75.0006 204.313C79.5693 206.399 81.655 213.451 83.0455 218.814C84.5353 224.177 94.8646 230.633 96.7517 242.452C98.6387 254.271 88.5081 267.977 88.0115 270.162C87.6142 272.447 87.4156 294.595 88.6074 299.164C89.8986 303.733 91.885 311.182 91.6863 314.459C91.4877 317.737 77.5829 324.192 56.9243 323.001C36.2658 321.809 14.614 311.38 13.9188 309.096C13.3229 306.811 20.0766 296.085 18.1895 273.639C16.3025 251.292 5.5759 227.058 13.4222 213.749C21.2685 200.638 40.1393 201.532 44.1121 201.632Z" fill="#22272E"/>
<path d="M43.1189 182.761C43.1189 182.761 44.2114 194.282 44.0127 201.632C44.0127 201.632 46.893 207.789 55.9311 209.577C66.8563 211.862 69.0414 205.604 67.5516 202.923C67.5516 202.923 64.9693 193.388 64.6713 186.833C64.4727 180.476 43.6155 181.867 43.1189 182.761Z" fill="#FFE7CA"/>
<path d="M52.0577 192.296C56.1298 198.652 60.3012 201.234 67.4523 201.731C67.055 200.34 66.5584 197.857 65.9625 195.176C60.3012 195.871 57.6196 193.885 52.0577 192.296Z" fill="#F8AB5D"/>
<path d="M39.3447 201.632C39.3447 201.632 45.1053 205.406 50.8658 213.55C56.5271 221.694 63.7774 227.753 68.8427 227.157C73.9081 226.561 76.2917 219.906 69.7366 203.221C69.7366 203.221 53.8454 200.638 39.3447 201.632Z" fill="#FFE7CA"/>
<path d="M133.003 295.588L174.619 293.006C175.115 293.006 175.711 291.913 175.91 292.311C176.009 292.41 175.91 293.999 175.91 294.098C175.91 294.396 175.81 294.794 175.612 294.992L144.227 327.172C142.935 328.463 141.148 329.158 139.261 328.96L98.3408 324.888C97.9435 324.888 97.5462 324.59 97.4469 324.292C97.3476 324.093 95.7585 321.412 95.8578 321.114C95.8578 320.816 98.1421 320.816 98.4401 320.617L130.222 296.681C130.918 296.085 131.911 295.688 133.003 295.588Z" fill="#63737A"/>
<path d="M132.507 293.006L174.718 291.218C175.81 291.218 176.406 292.509 175.612 293.304L143.134 325.285C141.843 326.576 139.956 327.271 138.069 326.973L96.6523 321.908C95.5598 321.809 95.1625 320.418 96.0564 319.723L129.527 293.999C130.322 293.403 131.414 293.006 132.507 293.006Z" fill="#22272E"/>
<path d="M151.179 291.119C151.179 291.119 150.086 291.318 150.086 293.403C150.086 295.39 150.881 301.051 148.795 301.448C146.809 301.845 145.816 299.362 144.823 297.177C143.829 294.992 140.85 294.893 138.963 291.715" fill="#FFE7CA"/>
<path d="M75.0999 146.211C75.0999 146.211 77.9802 153.859 78.2781 162.5C78.5761 171.24 81.5557 176.206 79.8673 183.754C78.1788 191.402 72.2196 197.162 64.8699 197.46C57.5203 197.758 46.7937 191.203 40.9338 183.357C35.0739 175.411 33.2862 159.123 36.7624 151.177C40.0399 143.331 66.0618 135.087 75.0999 146.211Z" fill="#FFE7CA"/>
<path d="M78.4768 154.753C78.4768 154.753 74.206 155.249 71.5244 150.879C71.5244 150.879 65.0686 165.777 54.64 166.77C47.4889 167.466 46.0985 164.089 43.1189 166.77C40.1393 169.452 48.7801 184.946 46.0985 197.559C43.4168 210.173 30.7039 213.649 21.7651 205.902C10.5419 196.07 22.7583 194.183 25.0426 180.278C27.327 166.472 25.0426 155.845 32.3923 147.8C39.742 139.755 46.9923 134.789 58.6128 135.882C70.3325 136.974 75.0999 138.762 78.4768 154.753Z" fill="#22272E"/>
<path d="M47.7869 164.883C47.7869 164.883 47.0917 170.147 47.3896 171.836C47.6876 173.524 44.3107 169.949 41.2318 172.233C39.5433 173.524 37.9542 165.38 41.2318 162.897C44.41 160.414 46.2971 162.5 47.7869 164.883Z" fill="#22272E"/>
<path d="M45.8998 171.935C45.8998 171.935 42.1257 167.068 38.0535 170.048C33.9814 173.127 39.2454 182.066 45.4032 181.37" fill="#FFE7CA"/>
<path d="M129.428 318.333C129.428 318.333 135.089 323.001 137.274 324.59C139.36 326.179 138.069 327.569 135.685 327.569C133.202 327.669 125.455 321.312 129.428 318.333Z" fill="#FFE7CA"/>
<path d="M16.8984 209.677C14.5147 210.769 12.6276 212.656 11.3365 214.94C8.95279 219.41 5.5759 228.15 8.0589 239.473C11.7337 256.258 20.3746 281.485 24.2481 287.444C28.1215 293.403 46.2971 305.322 59.1094 313.267C71.9216 321.213 81.7543 325.583 84.138 327.371C86.621 329.158 91.2891 333.727 100.327 334.82C109.465 335.912 112.345 332.635 115.126 333.33C118.006 334.025 122.575 337.203 125.157 336.905C127.739 336.508 126.349 334.621 125.356 333.628C124.363 332.635 118.503 327.371 118.503 327.371C118.503 327.371 122.078 328.861 127.243 331.939C131.613 334.522 133.699 334.621 134.891 334.522C136.082 334.522 137.473 334.025 137.274 332.933C137.274 332.933 138.466 333.628 139.459 332.734C140.452 331.84 140.75 331.046 138.367 328.364C135.884 325.682 129.925 318.631 126.945 315.552C123.866 312.373 120.489 312.175 113.139 312.572C105.79 312.87 95.4605 311.38 95.1625 311.678C94.8646 311.976 63.2808 278.505 53.7461 268.971C53.7461 268.971 46.0985 244.041 43.8141 233.315C39.1461 211.762 27.8236 204.512 16.8984 209.677Z" fill="#FFE7CA"/>
<path d="M137.274 333.032C137.274 333.032 137.274 331.84 134.295 329.754C131.315 327.768 126.647 323.199 125.157 322.107C123.667 320.915 121.88 319.624 121.582 319.624" stroke="#F8AB5D" stroke-width="1.78776" stroke-miterlimit="10" stroke-linecap="round" stroke-linejoin="round"/>
<path d="M118.503 327.47C118.503 327.47 116.218 325.484 115.126 325.782" stroke="#F8AB5D" stroke-width="1.78776" stroke-miterlimit="10" stroke-linecap="round" stroke-linejoin="round"/>
<path d="M53.7461 268.971C53.7461 268.971 49.0781 268.474 45.4032 272.248" stroke="#F8AB5D" stroke-width="1.78776" stroke-miterlimit="10" stroke-linecap="round" stroke-linejoin="round"/>
<path d="M74.6033 167.763C75.2985 168.657 75.8945 169.551 76.4904 170.346C76.7883 170.743 77.0863 171.14 77.4836 171.438C77.6822 171.637 77.7815 171.736 77.9802 171.935L78.2781 172.134C78.3775 172.233 78.5761 172.332 78.6754 172.531C79.172 173.127 79.3707 173.921 79.3707 174.617C79.3707 175.312 79.0727 175.908 78.7747 176.404C78.1788 177.398 77.2849 178.291 76.0931 178.589C76.7883 177.695 77.1856 176.802 77.4836 175.808C77.7815 174.915 77.6822 174.021 77.2849 173.623C77.2849 173.524 77.1856 173.524 77.0863 173.425C76.987 173.325 76.8877 173.226 76.689 173.127C76.4904 172.928 76.1924 172.63 76.0931 172.432C75.6958 171.935 75.3979 171.438 75.1992 170.942C74.9013 170.048 74.6033 168.955 74.6033 167.763Z" fill="#22272E"/>
<path d="M71.5244 185.641C71.5244 185.641 68.6441 186.535 66.0618 183.853" stroke="#22272E" stroke-width="1.78776" stroke-miterlimit="10" stroke-linecap="round" stroke-linejoin="round"/>
<path d="M64.7706 172.332C65.6645 172.233 66.2604 171.339 66.0618 170.445L65.8631 169.551C65.7638 168.657 64.8699 168.061 63.9761 168.26C63.0822 168.359 62.4863 169.253 62.6849 170.147L62.8835 171.041C63.0822 171.836 63.8767 172.432 64.7706 172.332Z" fill="#22272E"/>
<path d="M76.8877 170.346C77.7815 170.246 78.3774 169.353 78.1788 168.459L77.9802 167.565C77.8808 166.671 76.987 166.075 76.0931 166.274C75.1992 166.373 74.6033 167.267 74.8019 168.161L75.0006 169.055C75.1992 169.849 75.9938 170.544 76.8877 170.346Z" fill="#22272E"/>
<path d="M63.8767 162.003C64.7706 162.102 65.4659 161.308 65.3665 160.414C65.2672 159.619 65.0686 158.825 64.6713 158.328C63.7774 157.335 60.3012 157.633 57.7189 159.619C55.0373 161.606 54.0441 164.188 55.3352 164.287C56.6264 164.387 58.5135 162.698 60.5992 162.202C61.5924 161.804 62.8835 161.904 63.8767 162.003Z" fill="#22272E"/>
<path d="M76.8877 160.513C76.4904 160.811 75.9938 160.513 75.8945 160.116C75.6958 159.321 75.4972 158.129 75.7951 157.831C76.2917 157.236 77.7815 157.633 78.0795 158.527C78.3775 159.421 78.4768 159.917 78.1788 159.917C77.9802 159.818 77.3843 160.116 76.8877 160.513Z" fill="#22272E"/>
<path d="M39.6427 174.517C39.3447 174.219 39.2454 173.822 39.2454 173.325C39.2454 173.127 39.3447 172.829 39.5433 172.531C39.742 172.233 39.9406 172.134 40.2386 171.935C40.3379 171.935 40.4372 171.836 40.6359 171.836C40.8345 171.836 41.1325 171.836 41.3311 171.935C41.7284 172.134 41.927 172.432 42.0263 172.63C42.3243 173.027 42.4236 173.425 42.6223 173.822C42.9202 174.517 43.0195 175.212 43.2182 175.709C43.3175 176.007 43.4168 176.206 43.6155 176.404C43.8141 176.603 44.2114 176.702 44.6087 176.702C44.3107 177 43.9134 177.199 43.4168 177.199C42.9202 177.199 42.4236 176.901 42.1257 176.504C41.5297 175.808 41.2318 175.014 40.9338 174.418C40.8345 174.12 40.7352 173.723 40.6359 173.524C40.6359 173.425 40.5365 173.325 40.6359 173.325H40.7352H40.6359C40.4372 173.325 40.3379 173.325 40.1393 173.524C39.8413 173.723 39.742 174.12 39.6427 174.517Z" fill="#22272E"/>
<path d="M320.42 113.038H285.46L281.884 115.323C280.792 116.018 279.202 115.223 279.202 113.932V89.2014C279.202 86.7184 281.189 84.6327 283.771 84.6327H320.321C322.804 84.6327 324.89 86.6191 324.89 89.2014V108.469C324.89 111.052 322.903 113.038 320.42 113.038Z" fill="#F4C2C9"/>
<path d="M289.631 103.901L293.107 100.425C294.994 98.5375 297.974 98.5375 299.861 100.425C301.748 102.312 304.728 102.312 306.615 100.425L313.269 93.7701" stroke="#22272E" stroke-width="1.78776" stroke-linecap="round" stroke-linejoin="round"/>
<path d="M314.362 95.7565L315.554 91.4857L311.283 92.6776L314.362 95.7565Z" fill="#22272E"/>
<path d="M627.319 228.448L535.746 217.721C533.064 217.423 531.475 215.04 532.071 212.358L553.226 115.621C553.723 113.336 555.908 111.449 558.292 111.151L653.837 101.12C656.32 100.822 658.208 102.808 657.711 105.192L632.384 224.773C631.788 227.058 629.603 228.746 627.319 228.448Z" fill="#63737A"/>
<path d="M623.644 228.448L531.277 217.622C528.595 217.324 526.907 214.941 527.502 212.259L548.856 114.826C549.353 112.442 551.538 110.555 554.021 110.357L650.262 100.226C652.745 99.928 654.632 101.914 654.135 104.298L628.511 224.872C628.114 227.058 625.829 228.746 623.644 228.448Z" fill="#22272E"/>
<path d="M589.577 134.988L554.815 136.676C553.922 136.676 553.226 135.981 553.425 135.087L556.206 122.176C556.405 121.48 557 120.884 557.795 120.785L592.855 117.806C593.848 117.706 594.444 118.501 594.245 119.395L591.167 133.697C591.067 134.293 590.372 134.889 589.577 134.988Z" fill="#517ACA"/>
<path d="M543.592 207.392C542.798 207.293 542.301 206.598 542.5 205.902L547.664 181.668C547.863 180.874 548.558 180.278 549.353 180.377C550.147 180.476 550.644 181.072 550.445 181.867L545.281 206.2C545.181 206.896 544.387 207.492 543.592 207.392Z" fill="#F4C2C9"/>
<path d="M555.908 207.094L562.066 178.49C562.264 177.695 562.96 177.1 563.754 177.199H563.953C564.747 177.199 565.244 177.894 565.145 178.689L558.987 207.293C558.788 208.087 557.994 208.683 557.199 208.584H557C556.206 208.584 555.709 207.889 555.908 207.094Z" fill="#73C2C7"/>
<path d="M569.316 208.187L576.269 175.51C576.467 174.617 577.262 174.021 578.156 174.021C579.049 174.021 579.645 174.815 579.447 175.709L572.494 208.385C572.296 209.279 571.402 209.875 570.508 209.875C569.713 209.875 569.118 209.081 569.316 208.187Z" fill="#517ACA"/>
<path d="M618.976 146.509L621.26 151.376C618.48 154.554 615.103 156.54 611.924 156.54C605.767 156.54 602.489 149.091 604.475 139.855C606.462 130.618 613.017 122.772 619.274 122.275C622.552 121.977 625.035 123.665 626.524 126.645L622.154 131.81C621.26 130.022 619.771 128.929 617.884 129.128C614.109 129.426 610.137 134.094 608.845 139.755C607.654 145.317 609.64 149.886 613.414 149.787C615.401 149.588 617.387 148.396 618.976 146.509Z" fill="#517ACA"/>
<path d="M627.518 138.762C626.425 143.629 624.141 148.098 621.36 151.276L619.075 146.41C620.764 144.523 622.154 141.841 622.75 138.961C623.346 136.08 623.148 133.498 622.254 131.71L626.624 126.546C628.114 129.625 628.511 133.895 627.518 138.762Z" fill="#73C2C7"/>
<path d="M592.458 194.679C590.471 203.916 593.749 211.365 599.907 211.365C603.085 211.365 606.462 209.379 609.243 206.2L606.958 201.334C605.27 203.221 603.284 204.413 601.396 204.512C597.622 204.611 595.636 200.043 596.828 194.481C597.324 191.998 598.516 189.614 599.907 187.826L597.821 183.257C595.338 186.436 593.352 190.408 592.458 194.679Z" fill="#517ACA"/>
<path d="M605.866 183.953C607.753 183.853 609.342 184.847 610.137 186.634L614.507 181.47C613.017 178.49 610.435 176.802 607.256 177.1C603.879 177.398 600.503 179.781 597.722 183.257L599.807 187.826C601.595 185.641 603.681 184.052 605.866 183.953Z" fill="#73C2C7"/>
<path d="M615.401 193.785C614.308 198.652 612.024 203.121 609.243 206.3L606.958 201.433C608.647 199.546 610.037 196.864 610.633 193.984C611.229 191.104 611.031 188.521 610.137 186.734L614.507 181.569C615.997 184.549 616.493 188.919 615.401 193.785Z" fill="#F4C2C9"/>
<path d="M552.233 145.317L576.666 144.423" stroke="#63737A" stroke-width="1.78776" stroke-miterlimit="10" stroke-linecap="round" stroke-linejoin="round"/>
<path d="M550.843 150.879L585.803 150.482" stroke="#63737A" stroke-width="1.78776" stroke-miterlimit="10" stroke-linecap="round" stroke-linejoin="round"/>
<path d="M549.75 156.64H585.108" stroke="#63737A" stroke-width="1.78776" stroke-miterlimit="10" stroke-linecap="round" stroke-linejoin="round"/>
<path d="M641.124 109.86C641.323 109.065 641.025 108.469 640.429 108.469C639.833 108.569 639.237 109.264 639.138 110.059C638.939 110.853 639.237 111.449 639.833 111.449C640.429 111.35 641.025 110.655 641.124 109.86Z" fill="#63737A"/>
<path d="M646.885 109.363C647.084 108.569 646.686 107.973 646.19 107.973C645.594 108.072 644.998 108.767 644.799 109.562C644.601 110.357 644.998 110.952 645.495 110.952C646.19 110.853 646.786 110.158 646.885 109.363Z" fill="#63737A"/>
<path d="M279.202 329.357V329.655C279.202 330.648 278.408 331.443 277.415 331.443H193.191C192.198 331.443 191.404 330.648 191.404 329.655C191.404 329.059 191.702 328.463 192.099 327.967L208.387 311.877C209.182 311.082 210.175 310.685 211.168 310.685H266.49C267.88 310.685 269.27 311.48 269.966 312.671L278.905 328.066C279.004 328.563 279.202 328.96 279.202 329.357Z" fill="#22272E"/>
<path d="M237.19 325.086C237.19 325.384 236.594 325.682 235.8 325.682C235.005 325.682 234.409 325.384 234.409 325.086C234.409 324.788 235.005 324.49 235.8 324.49C236.594 324.49 237.19 324.788 237.19 325.086Z" fill="#63737A"/>
<path d="M571.998 417.653C571.998 417.653 564.35 401.265 583.519 390.935C602.688 380.606 629.305 390.836 626.922 394.412C625.432 396.597 621.558 402.953 614.308 410.799C608.25 417.454 590.869 427.783 571.998 417.653Z" fill="#517ACA"/>
<path d="M623.545 393.716C623.545 393.716 581.433 384.281 571.898 417.653C562.463 451.024 565.343 483.005 565.343 483.005" stroke="#22272E" stroke-width="1.78776" stroke-miterlimit="10" stroke-linecap="round" stroke-linejoin="round"/>
<path d="M534.058 455.196L540.911 535.943C540.911 539.022 553.425 541.405 568.919 541.405C584.313 541.405 596.927 538.922 596.927 535.943L603.78 455.196H534.058Z" fill="#22272E"/>
<path d="M568.919 460.459C588.117 460.459 603.681 458.103 603.681 455.196C603.681 452.288 588.117 449.932 568.919 449.932C549.72 449.932 534.157 452.288 534.157 455.196C534.157 458.103 549.72 460.459 568.919 460.459Z" fill="#517ACA"/>
<path d="M560.079 438.41C560.079 438.41 548.856 432.849 541.606 445.363C534.355 457.976 539.719 476.748 544.685 479.529C549.651 482.31 570.309 472.875 570.309 453.904C570.309 437.02 560.079 438.41 560.079 438.41Z" fill="#517ACA"/>
<path d="M560.079 438.41C560.079 438.41 548.856 437.616 545.479 476.947" stroke="#22272E" stroke-width="1.78776" stroke-miterlimit="10" stroke-linecap="round" stroke-linejoin="round"/>
<path d="M551.538 415.468C551.538 415.468 539.719 397.093 516.081 408.912C492.443 420.731 493.138 453.308 496.813 455.195C500.587 457.083 555.809 437.815 551.538 415.468Z" fill="#517ACA"/>
<path d="M570.309 453.904C570.309 453.904 562.96 428.081 551.538 415.368C540.017 402.655 504.659 417.255 498.402 447.945" stroke="#22272E" stroke-width="1.78776" stroke-miterlimit="10" stroke-linecap="round" stroke-linejoin="round"/>
<path d="M583.519 425.797C583.519 425.797 573.488 422.321 568.919 434.736C564.449 446.853 569.713 474.464 595.537 482.806C596.927 483.204 598.417 482.806 599.311 481.714C602.489 478.039 609.143 468.405 609.143 453.904C609.044 433.742 597.92 419.142 583.519 425.797Z" fill="#517ACA"/>
<path d="M583.519 425.797C583.519 425.797 604.376 436.027 596.728 479.032" stroke="#22272E" stroke-width="1.78776" stroke-miterlimit="10" stroke-linecap="round" stroke-linejoin="round"/>
<path d="M372.265 292.907C372.265 292.907 372.663 305.421 390.739 306.613C408.716 307.904 443.776 303.832 450.629 301.945C457.482 300.058 457.085 289.033 452.714 285.954C448.344 282.875 422.124 281.485 408.716 279.498C405.637 279.002 402.061 278.406 398.386 278.108C395.208 277.81 392.03 277.611 388.951 277.711C379.913 278.108 372.365 281.584 372.265 292.907Z" fill="#517ACA"/>
<path d="M372.067 289.43C372.067 289.43 372.067 286.848 375.94 287.543C384.382 289.132 391.533 307.308 382.893 305.024" stroke="#22272E" stroke-width="1.78776" stroke-miterlimit="10" stroke-linecap="round" stroke-linejoin="round"/>
<path d="M408.616 279.498C405.537 279.002 401.962 278.406 398.287 278.108C395.109 277.81 391.931 277.611 388.852 277.711" stroke="#22272E" stroke-width="1.78776" stroke-miterlimit="10" stroke-linecap="round" stroke-linejoin="round"/>
<path d="M497.309 221.496C500.587 222.588 502.97 225.17 507.142 237.784C512.604 254.271 519.557 289.232 515.981 298.667C512.406 308.103 505.255 312.969 481.219 314.062C457.184 315.154 433.844 313.267 430.765 313.267C427.686 313.267 422.521 301.945 425.799 294.496C425.799 294.496 446.159 289.53 457.68 286.451C469.202 283.372 481.915 280.094 487.179 279.498C487.179 279.498 478.637 258.542 475.856 251.192C473.075 243.843 475.359 231.328 481.915 225.667C488.37 220.105 494.528 220.602 497.309 221.496Z" fill="#517ACA"/>
<path d="M487.079 279.498C487.079 279.498 496.912 277.512 502.772 279.498" stroke="#22272E" stroke-width="1.78776" stroke-miterlimit="10" stroke-linecap="round" stroke-linejoin="round"/>
<path d="M516.975 292.907C516.975 292.907 514.889 287.941 506.447 293.503C499.792 297.873 497.806 310.983 505.056 310.188" stroke="#22272E" stroke-width="1.78776" stroke-miterlimit="10" stroke-linecap="round" stroke-linejoin="round"/>
<path d="M427.785 294.694C427.785 294.694 422.521 295.191 417.158 295.191C411.795 295.191 404.544 296.085 402.856 296.879C401.167 297.575 384.084 314.757 384.482 317.041C384.78 319.326 388.057 317.836 390.838 315.949C393.52 313.963 398.784 308.897 399.876 308.202C399.876 308.202 398.486 311.38 397.195 316.148C395.903 320.915 394.612 325.682 395.903 326.477C397.592 327.47 399.181 325.782 399.678 324.788C399.678 324.788 399.578 327.271 401.565 327.371C403.551 327.47 405.438 323.696 407.027 320.518C408.716 317.339 412.093 313.168 412.093 313.168C412.093 313.168 410.503 318.233 409.908 321.014C409.312 323.795 408.914 327.073 410.404 327.371C412.689 327.867 414.774 321.114 416.065 318.531C417.456 315.85 422.422 317.637 426.097 315.353C429.871 312.969 431.857 312.373 431.857 312.373C431.857 312.373 434.34 309.89 434.34 304.527C434.34 299.065 429.871 294.496 427.785 294.694Z" fill="#F4C2C9"/>
<path d="M399.479 324.888C399.479 324.888 404.246 310.983 406.233 308.301C408.219 305.62 408.914 305.421 409.51 305.024" stroke="#E26E85" stroke-width="1.78776" stroke-miterlimit="10" stroke-linecap="round" stroke-linejoin="round"/>
<path d="M399.678 308.301C399.678 308.301 400.472 306.712 401.763 304.328C402.459 303.137 403.948 301.945 403.948 301.945" stroke="#E26E85" stroke-width="1.78776" stroke-miterlimit="10" stroke-linecap="round" stroke-linejoin="round"/>
<path d="M411.894 313.168C411.894 313.168 413.284 309.791 414.675 309.394" stroke="#E26E85" stroke-width="1.78776" stroke-miterlimit="10" stroke-linecap="round" stroke-linejoin="round"/>
<path d="M443.577 284.564C443.577 284.564 447.55 283.273 451.225 281.584C454.9 279.896 456.389 279.201 459.27 279.002C462.15 278.704 471.188 278.704 472.479 279.498C473.77 280.293 475.459 284.067 476.353 285.954C477.247 287.841 474.366 295.29 474.366 295.29C474.366 295.29 475.657 301.845 474.068 302.541C473.075 302.938 472.181 302.739 470.89 299.263C470.89 299.263 471.784 302.243 469.996 302.441C468.208 302.64 466.222 297.475 464.931 295.191C463.64 292.907 461.157 290.026 461.157 290.026C461.157 290.026 462.249 293.602 462.448 294.794C462.646 296.085 463.441 299.065 462.944 300.256C462.448 301.448 460.66 299.859 458.872 295.787C457.085 291.715 456.489 290.324 455.396 290.424C449.238 291.02 449.636 289.629 446.656 289.43L440.101 291.119C440.002 291.02 439.306 287.047 443.577 284.564Z" fill="#F4C2C9"/>
<path d="M470.89 299.164C470.89 299.164 468.904 292.708 468.208 290.722C467.513 288.835 465.229 285.259 465.229 285.259" stroke="#E26E85" stroke-width="1.78776" stroke-miterlimit="10" stroke-linecap="round" stroke-linejoin="round"/>
<path d="M474.366 295.191C474.366 295.191 473.174 288.239 472.678 286.55C472.181 284.961 471.387 283.471 471.387 283.471" stroke="#E26E85" stroke-width="1.78776" stroke-miterlimit="10" stroke-linecap="round" stroke-linejoin="round"/>
<path d="M461.057 289.927C461.057 289.927 460.461 287.941 460.163 287.345" stroke="#E26E85" stroke-width="1.78776" stroke-miterlimit="10" stroke-linecap="round" stroke-linejoin="round"/>
</g>
</svg>
